<?xml version="1.0" encoding="UTF-8" standalone="no"?>
<!-- Created with Inkscape (http://www.inkscape.org/) -->

<svg
   xmlns:dc="http://purl.org/dc/elements/1.1/"
   xmlns:cc="http://creativecommons.org/ns#"
   xmlns:rdf="http://www.w3.org/1999/02/22-rdf-syntax-ns#"
   xmlns:svg="http://www.w3.org/2000/svg"
   xmlns="http://www.w3.org/2000/svg"
   xmlns:sodipodi="http://sodipodi.sourceforge.net/DTD/sodipodi-0.dtd"
   xmlns:inkscape="http://www.inkscape.org/namespaces/inkscape"
   width="645.19623"
   height="266.23901"
   id="svg2"
   version="1.1"
   inkscape:version="0.48.2 r9819"
   sodipodi:docname="linking.svg">
  <defs
     id="defs4" />
  <sodipodi:namedview
     id="base"
     pagecolor="#ffffff"
     bordercolor="#666666"
     borderopacity="1.0"
     inkscape:pageopacity="0.0"
     inkscape:pageshadow="2"
     inkscape:zoom="1.6514684"
     inkscape:cx="318.54838"
     inkscape:cy="141.90805"
     inkscape:document-units="px"
     inkscape:current-layer="layer1"
     showgrid="false"
     fit-margin-left="2"
     fit-margin-top="2"
     fit-margin-right="2"
     fit-margin-bottom="2"
     inkscape:window-width="1273"
     inkscape:window-height="756"
     inkscape:window-x="0"
     inkscape:window-y="0"
     inkscape:window-maximized="0" />
  <metadata
     id="metadata7">
    <rdf:RDF>
      <cc:Work
         rdf:about="">
        <dc:format>image/svg+xml</dc:format>
        <dc:type
           rdf:resource="http://purl.org/dc/dcmitype/StillImage" />
        <dc:title></dc:title>
      </cc:Work>
    </rdf:RDF>
  </metadata>
  <g
     inkscape:label="Layer 1"
     inkscape:groupmode="layer"
     id="layer1"
     transform="translate(-49.754358,-738.24038)">
    <g
       id="g4059">
      <path
         sodipodi:nodetypes="cc"
         inkscape:connector-curvature="0"
         id="path3419"
         d="m 127.72473,956.94755 c 41.37285,-6.48363 134.56355,11.79597 168.90196,4.81606"
         style="fill:none;stroke:#000000;stroke-width:1px;stroke-linecap:butt;stroke-linejoin:miter;stroke-opacity:1" />
      <path
         sodipodi:nodetypes="csc"
         inkscape:connector-curvature="0"
         id="path3423"
         d="m 276.25882,950.3173 c 6.22277,6.87858 6.68853,6.99017 12.89449,9.05882 18.87432,6.29145 -1.07427,-1.3686 -10.85901,14.93931"
         style="fill:none;stroke:#000000;stroke-width:1px;stroke-linecap:butt;stroke-linejoin:miter;stroke-opacity:1" />
    </g>
    <g
       id="g3565"
       transform="translate(49.448835,29.728442)">
      <path
         inkscape:connector-curvature="0"
         id="path3425"
         d="m 137.71429,892.93361 c -31.55175,-0.96149 -10.30068,3.94015 -8,13.14286 2.09717,8.3887 -10.84197,5.72693 -14.28572,2.85714"
         style="fill:none;stroke:#000000;stroke-width:1px;stroke-linecap:butt;stroke-linejoin:miter;stroke-opacity:1" />
      <path
         inkscape:connector-curvature="0"
         id="path3427"
         d="m 134.85714,903.79075 c -4.97602,31.2979 -3.13688,1.88214 0,0 4.0618,-2.43707 15.9182,5.23618 0.57143,7.42858"
         style="fill:none;stroke:#000000;stroke-width:1px;stroke-linecap:butt;stroke-linejoin:miter;stroke-opacity:1" />
      <path
         inkscape:connector-curvature="0"
         id="path3429"
         d="m 152.57143,888.93361 c -1.29562,7.93159 -3.73304,17.19287 -6.28572,24"
         style="fill:none;stroke:#000000;stroke-width:1px;stroke-linecap:butt;stroke-linejoin:miter;stroke-opacity:1" />
      <path
         inkscape:connector-curvature="0"
         id="path3431"
         d="m 162.28571,904.93361 c -3.89045,-2.31403 -15.65293,5.48992 -11.42857,9.71429 5.11591,5.1159 12.34991,-6.63563 14.28572,-8.57143 0.50256,-0.50257 -3.00048,10.21404 -1.71429,10.85714 2.71561,1.35781 8.75819,-11.24182 12,-8 1.92764,1.92764 -2.01417,8.29989 -1.71428,8 1.14131,-1.14131 9.53265,-10.46734 11.42857,-8.57143 1.77153,1.77153 -0.35061,5.05182 -1.14286,7.42857"
         style="fill:none;stroke:#000000;stroke-width:1px;stroke-linecap:butt;stroke-linejoin:miter;stroke-opacity:1" />
      <path
         inkscape:connector-curvature="0"
         id="path3433"
         d="m 195.42857,908.93361 c -2.97772,-0.62845 -11.73309,3.9624 -9.71428,8 5.88689,11.77379 8.60287,-15.27135 10.85714,-4 1.38443,6.92216 -2.2958,35.80616 -15.42857,31.42857 -10.47215,-3.49071 17.28339,-20.64169 19.42857,-21.71428"
         style="fill:none;stroke:#000000;stroke-width:1px;stroke-linecap:butt;stroke-linejoin:miter;stroke-opacity:1" />
    </g>
    <g
       id="g3607"
       transform="translate(42.375938,27.988722)">
      <path
         inkscape:connector-curvature="0"
         id="path3491"
         d="m 153.71429,744.93361 c -1.40848,5.90826 0,3.47215 0,0 z"
         style="fill:none;stroke:#000000;stroke-width:1px;stroke-linecap:butt;stroke-linejoin:miter;stroke-opacity:1" />
      <path
         inkscape:connector-curvature="0"
         id="path3493"
         d="m 164,738.6479 c -10.33724,0.90375 -12.73995,9.71428 7.42857,9.71428"
         style="fill:none;stroke:#000000;stroke-width:1px;stroke-linecap:butt;stroke-linejoin:miter;stroke-opacity:1" />
    </g>
    <g
       id="g3611"
       transform="translate(35.139096,29.304511)">
      <path
         inkscape:connector-curvature="0"
         id="path3495"
         d="m 151.42857,767.21933 c -1.39646,9.83289 1.82775,-4.56937 -1.14286,2.85714"
         style="fill:none;stroke:#000000;stroke-width:1px;stroke-linecap:butt;stroke-linejoin:miter;stroke-opacity:1" />
      <path
         inkscape:connector-curvature="0"
         id="path3499"
         d="m 166.28571,762.07647 c -15.77256,-2.42384 -11.36273,6.85714 2.28572,6.85714"
         style="fill:none;stroke:#000000;stroke-width:1px;stroke-linecap:butt;stroke-linejoin:miter;stroke-opacity:1" />
      <path
         inkscape:connector-curvature="0"
         id="path3501"
         d="m 171.42857,762.07647 c -4.97993,22.9768 -4.70001,2.75239 2.85714,-2.28572 2.01357,-1.34237 6.81317,7.42858 -3.42857,7.42858"
         style="fill:none;stroke:#000000;stroke-width:1px;stroke-linecap:butt;stroke-linejoin:miter;stroke-opacity:1" />
      <path
         inkscape:connector-curvature="0"
         id="path3503"
         d="m 182.85714,763.21933 c -8.36048,23.77834 -0.57143,7.32006 -0.57143,-2.28572 0,-2.07938 13.65415,6.45757 -1.14285,8.57143"
         style="fill:none;stroke:#000000;stroke-width:1px;stroke-linecap:butt;stroke-linejoin:miter;stroke-opacity:1" />
    </g>
    <path
       id="path3513"
       style="fill:none;stroke:#000000;stroke-width:1px;stroke-linecap:butt;stroke-linejoin:miter;stroke-opacity:1"
       d="m 235,742.93361 c -3.38071,-3.38071 -51.94747,-2.08562 -56.57143,-1.14286 -0.30695,4.66681 0.0943,83.58917 -0.97946,83.22316 16.24581,-0.76738 41.87945,-0.0255 53.63399,2.16434 2.72373,-3.71632 11.89299,-76.26856 3.9169,-84.24464 z"
       inkscape:connector-curvature="0"
       sodipodi:nodetypes="scccs" />
    <g
       id="g3603"
       transform="translate(38.42857,12.857143)">
      <path
         inkscape:connector-curvature="0"
         id="path3515"
         d="M 214.85714,775.79075 C 271.55773,759.17843 343.08755,793.53499 388,827.21933 c 12.57455,9.43091 24.4053,20.40529 35.42857,31.42857 4.34754,4.34754 21.04817,22.16734 16.57143,16.57143"
         style="fill:none;stroke:#000000;stroke-width:1px;stroke-linecap:butt;stroke-linejoin:miter;stroke-opacity:1" />
      <path
         inkscape:connector-curvature="0"
         id="path3517"
         d="m 439,854.21933 c -4.14521,33.41736 14.35493,21.31601 -14.85714,17.14285"
         style="fill:none;stroke:#000000;stroke-width:1px;stroke-linecap:butt;stroke-linejoin:miter;stroke-opacity:1" />
    </g>
    <g
       id="g3593"
       transform="translate(38.42857,12.857143)">
      <path
         inkscape:connector-curvature="0"
         id="path3519"
         d="m 312,762.07647 c -14.65266,-16.56097 -27.62049,28.30035 0,8.57143"
         style="fill:none;stroke:#000000;stroke-width:1px;stroke-linecap:butt;stroke-linejoin:miter;stroke-opacity:1" />
      <path
         inkscape:connector-curvature="0"
         id="path3531"
         d="m 330.60485,767.51986 c -3.96491,-5.10047 -16.00304,3.76023 -13.46199,8.84232 5.07234,10.14469 10.99936,-6.71239 14.4601,-6.71239 0.16653,0 -4.71639,11.00301 3.82561,12.42668"
         style="fill:none;stroke:#000000;stroke-width:1px;stroke-linecap:butt;stroke-linejoin:miter;stroke-opacity:1"
         sodipodi:nodetypes="cssc" />
      <path
         inkscape:connector-curvature="0"
         id="path3533"
         d="m 338.85714,771.21933 c -4.65503,30.49323 -0.0465,-3.12163 9.6364,6.11132 0,0 -8.19737,8.73348 -5.06497,11.03153 1.01899,0.74757 22.08168,-1.61779 22.08168,-1.61779 -2.80018,-1.22923 -17.17755,-0.85379 -12.84233,5.22075 7.13586,9.99883 13.85465,-7.18612 12.64933,-4.77546 -2.11251,4.22501 -8.80246,36.57275 -15.60296,33.1725 -15.66997,-7.83498 10.5613,-21.14285 22.85714,-21.14285"
         style="fill:none;stroke:#000000;stroke-width:1px;stroke-linecap:butt;stroke-linejoin:miter;stroke-opacity:1"
         sodipodi:nodetypes="cssssssc" />
      <path
         inkscape:connector-curvature="0"
         id="path3557"
         d="m 404,785.50504 c -11.4317,-0.16021 -34.76516,21.48962 -35.42857,22.28571"
         style="fill:none;stroke:#000000;stroke-width:1px;stroke-linecap:butt;stroke-linejoin:miter;stroke-opacity:1" />
      <path
         inkscape:connector-curvature="0"
         id="path3559"
         d="m 397.14286,806.6479 c -6.66233,-1.61559 -17.16664,-0.45026 -13.5399,5.79218 4.76443,8.20064 10.68275,-6.19687 10.68275,-2.36361 0,4.55692 -8.66182,31.09766 -16,27.42857 -10.62105,-5.31053 5.87271,-17.28053 14.85715,-14.28571"
         style="fill:none;stroke:#000000;stroke-width:1px;stroke-linecap:butt;stroke-linejoin:miter;stroke-opacity:1"
         sodipodi:nodetypes="csssc" />
      <path
         inkscape:connector-curvature="0"
         id="path3561"
         d="m 409.71429,816.36218 c -18.11677,-2.52249 -27.57319,8.26161 -5.14286,12"
         style="fill:none;stroke:#000000;stroke-width:1px;stroke-linecap:butt;stroke-linejoin:miter;stroke-opacity:1" />
      <path
         inkscape:connector-curvature="0"
         id="path3563"
         d="m 421.71429,824.36218 c -17.51532,-0.61504 -23.29405,5.56865 -4,12"
         style="fill:none;stroke:#000000;stroke-width:1px;stroke-linecap:butt;stroke-linejoin:miter;stroke-opacity:1" />
      <path
         inkscape:connector-curvature="0"
         id="path3585"
         d="m 324.85714,747.36218 c -3.93049,9.78535 -10.31463,21.29772 -12.04825,31.69947"
         style="fill:none;stroke:#000000;stroke-width:1px;stroke-linecap:butt;stroke-linejoin:miter;stroke-opacity:1"
         sodipodi:nodetypes="cc" />
    </g>
    <g
       id="g5223">
      <path
         inkscape:connector-curvature="0"
         id="path3862"
         d="m 422.63534,923.50324 c -2.45015,2.64992 3.42857,31.72471 3.42857,24"
         style="fill:none;stroke:#000000;stroke-width:1px;stroke-linecap:butt;stroke-linejoin:miter;stroke-opacity:1" />
      <path
         inkscape:connector-curvature="0"
         id="path3866"
         d="m 416.06391,920.6461 c 0.54969,7.59665 0.63516,15.30328 1.71428,22.85714 0.53788,3.76514 2.52393,8 2.28572,8 -0.18503,0 -0.50815,-2.60402 -0.57143,-2.85714"
         style="fill:none;stroke:#000000;stroke-width:1px;stroke-linecap:butt;stroke-linejoin:miter;stroke-opacity:1" />
      <path
         inkscape:connector-curvature="0"
         id="path3868"
         d="m 440.06391,937.21753 c -1.06878,0.0652 -3.03855,-0.39003 -4,0.57142 -12.08807,12.08808 -4.15874,9.71429 8,9.71429"
         style="fill:none;stroke:#000000;stroke-width:1px;stroke-linecap:butt;stroke-linejoin:miter;stroke-opacity:1" />
    </g>
    <g
       id="g4008"
       transform="translate(0,-9.4868341)">
      <path
         inkscape:connector-curvature="0"
         id="path3870"
         d="m 503.85714,969.50504 c -1.98363,-0.52989 0,6.27552 0,0 z"
         style="fill:none;stroke:#000000;stroke-width:1px;stroke-linecap:butt;stroke-linejoin:miter;stroke-opacity:1" />
      <path
         inkscape:connector-curvature="0"
         id="path3872"
         d="m 515.85714,960.36218 c -3.54698,-1.48036 -4.54366,0.54367 -6.85714,2.85715 -5.4906,5.4906 1.6841,10.00754 7.42857,8.57142 6.93258,-1.73314 8.39007,-14.23746 -1.2876,-14.23746"
         style="fill:none;stroke:#000000;stroke-width:1px;stroke-linecap:butt;stroke-linejoin:miter;stroke-opacity:1"
         sodipodi:nodetypes="cssc" />
    </g>
    <g
       id="g3998"
       transform="translate(6,0)">
      <path
         inkscape:connector-curvature="0"
         id="path3880"
         d="m 579.28571,930.6479 c -1.31921,-17.43505 3.42858,29.30969 3.42858,13.71428"
         style="fill:none;stroke:#000000;stroke-width:1px;stroke-linecap:butt;stroke-linejoin:miter;stroke-opacity:1" />
      <path
         inkscape:connector-curvature="0"
         id="path3882"
         d="m 594.7143,936.36218 c -15.10056,2.57644 -4.3703,24.03076 2.33391,1.16146"
         style="fill:none;stroke:#000000;stroke-width:1px;stroke-linecap:butt;stroke-linejoin:miter;stroke-opacity:1"
         sodipodi:nodetypes="cc" />
      <path
         inkscape:connector-curvature="0"
         id="path3884"
         d="m 596.4286,923.79075 c 0.65,2.6029 -1.8111,30.47931 1.7143,23.42858"
         style="fill:none;stroke:#000000;stroke-width:1px;stroke-linecap:butt;stroke-linejoin:miter;stroke-opacity:1" />
    </g>
    <path
       style="fill:none;stroke:#000000;stroke-width:1px;stroke-linecap:butt;stroke-linejoin:miter;stroke-opacity:1"
       d="m 673.87974,989.5915 c -4.2578,-0.32752 -41.1086,1.74859 -41.7143,1.14286 -2.8661,-2.86609 0.4011,-43.17115 0.5714,-47.42857 0.4645,-11.6137 1.7619,-23.19558 1.1429,-34.85715 9.7524,1.58352 19.5507,1.71429 29.7142,1.71429 3.0925,0 24.71773,-1.97512 26.93563,0.24276 3.648,3.648 1.21247,48.1599 -0.0784,54.61438 -1.9072,9.53596 2.42167,19.73731 0.0288,24.23747 -0.689,1.37805 -16.60017,0.33396 -16.60017,0.33396 z"
       id="path3886"
       inkscape:connector-curvature="0"
       sodipodi:nodetypes="ccscssscc" />
    <g
       id="g4012"
       transform="matrix(0.98931919,-0.14576535,0.14576535,0.98931919,-125.54986,104.63157)">
      <path
         inkscape:connector-curvature="0"
         id="path3888"
         d="m 639.2857,950.6479 c 2.3453,1.60156 6.7529,2.70142 9.7143,1.71428 6.1192,-2.03973 -2.434,-9.56598 -8,-4 -6.7408,6.74082 5.6295,11.75669 10.8571,9.14286"
         style="fill:none;stroke:#000000;stroke-width:1px;stroke-linecap:butt;stroke-linejoin:miter;stroke-opacity:1" />
      <path
         inkscape:connector-curvature="0"
         id="path3890"
         d="m 661.5714,950.6479 c -4.704,2.35242 -9.2693,6.98365 -12.5714,10.28571"
         style="fill:none;stroke:#000000;stroke-width:1px;stroke-linecap:butt;stroke-linejoin:miter;stroke-opacity:1" />
      <path
         inkscape:connector-curvature="0"
         id="path3892"
         d="m 651.2857,949.50504 c 2.3728,3.93807 3.2928,10.28571 8,10.28571"
         style="fill:none;stroke:#000000;stroke-width:1px;stroke-linecap:butt;stroke-linejoin:miter;stroke-opacity:1" />
      <path
         inkscape:connector-curvature="0"
         id="path3894"
         d="m 663.2857,956.93361 c 9.6129,4.22 11.3765,-10.5454 4,-6.85714 -2.9239,1.46194 -3.1313,4.25115 -4,6.85714 -0.404,1.21218 -1.5336,2.16366 -1.7143,3.42857 -0.3778,2.64504 10.1084,2.85715 11.4286,2.85715"
         style="fill:none;stroke:#000000;stroke-width:1px;stroke-linecap:butt;stroke-linejoin:miter;stroke-opacity:1" />
    </g>
    <g
       id="g4040"
       transform="translate(0,0.84390452)">
      <path
         inkscape:connector-curvature="0"
         id="path3876"
         d="m 529.88346,902.06144 c 1.02319,0 10.23854,-1.19004 11.42857,0 0.92799,0.92798 -0.4386,5.35595 -0.57142,6.28571 -2.09703,14.67918 1.5435,29.55001 2.85714,44 0.54948,6.04426 2.28571,12.26918 2.28571,18.28571 0,2.58624 1.63399,15.66983 -2.16218,13.57799 -3.79617,-2.09185 -12.61602,-1.52458 -17.58029,-1.19363 -3.69654,0.24644 -39.91552,2.52893 -41.14099,1.30346 -0.65906,-0.65905 -0.90009,-10.92467 -0.90009,-12.24837 0,-14.71736 0.82863,-22.44887 -0.81233,-37.21754 -1.10394,-9.93543 -0.33756,-24.85625 -3.67965,-35.13337 18.03268,0.61847 32.22109,2.34004 50.27553,2.34004 z"
         style="fill:none;stroke:#000000;stroke-width:1px;stroke-linecap:butt;stroke-linejoin:miter;stroke-opacity:1"
         sodipodi:nodetypes="ssssscsssscs" />
      <path
         inkscape:connector-curvature="0"
         id="path3900"
         d="m 540.50887,910.27773 c 2.21108,-0.15308 14.06338,-3.24194 15.9197,-1.38562 1.65416,21.7108 2.8074,43.97132 2.11952,65.87675 -0.20544,5.38519 1.46589,21.21809 1.46589,21.21809 0,0 -57.79976,6.69085 -63.01398,1.47662 -1.22385,-1.2239 -0.65359,-9.17571 -0.65359,-12.97856"
         style="fill:none;stroke:#000000;stroke-width:1px;stroke-linecap:butt;stroke-linejoin:miter;stroke-opacity:1"
         sodipodi:nodetypes="cccccc" />
    </g>
    <g
       id="g4086"
       transform="translate(5,0)">
      <path
         inkscape:connector-curvature="0"
         id="path3912"
         d="m 562.14286,952.93361 c 3.27524,1.9071 7.16411,2.00164 10.85714,2.28572 9.70328,0.7464 19.51775,-0.57143 29.1429,-0.57143 1.7182,0 21.0087,-1.14286 16.5714,-1.14286"
         style="fill:none;stroke:#000000;stroke-width:1px;stroke-linecap:butt;stroke-linejoin:miter;stroke-opacity:1" />
      <path
         sodipodi:nodetypes="csc"
         inkscape:connector-curvature="0"
         id="path3914"
         d="m 606.21945,942.07274 c 6.94296,9.95253 13.35345,8.75089 13.71984,11.91969 0,0 -9.72095,4.65416 -11.18766,8.65547"
         style="fill:none;stroke:#000000;stroke-width:1px;stroke-linecap:butt;stroke-linejoin:miter;stroke-opacity:1" />
    </g>
    <g
       id="g4063">
      <g
         transform="translate(36.998719,37.108527)"
         id="g3628">
        <path
           style="fill:none;stroke:#000000;stroke-width:1px;stroke-linecap:butt;stroke-linejoin:miter;stroke-opacity:1"
           d="m 46.285714,912.93361 c -1.358334,4.64509 -0.04626,9.55917 -0.571428,14.28572 -3.067842,27.61057 -5.427034,-9.9232 0.571428,-14.28572 10.298529,-7.48984 14.249381,10.27966 0.571429,8"
           id="path3409"
           inkscape:connector-curvature="0" />
        <path
           style="fill:none;stroke:#000000;stroke-width:1px;stroke-linecap:butt;stroke-linejoin:miter;stroke-opacity:1"
           d="m 24.571429,920.36218 c -3.622931,4.05818 0,5.09151 0,0 z"
           id="path3405"
           inkscape:connector-curvature="0" />
        <path
           style="fill:none;stroke:#000000;stroke-width:1px;stroke-linecap:butt;stroke-linejoin:miter;stroke-opacity:1"
           d="m 41.714286,910.6479 c -25.122879,-2.79809 10.699528,14.7022 -14.285715,13.71428"
           id="path3407"
           inkscape:connector-curvature="0"
           sodipodi:nodetypes="cc" />
        <path
           style="fill:none;stroke:#000000;stroke-width:1px;stroke-linecap:butt;stroke-linejoin:miter;stroke-opacity:1"
           d="m 61.142857,898.07647 c 1.027642,6.83698 0.571429,22.32764 0.571429,25.14286"
           id="path3411"
           inkscape:connector-curvature="0" />
      </g>
      <path
         sodipodi:nodetypes="cscssccc"
         inkscape:connector-curvature="0"
         d="m 108.57929,913.408 c 0,-21.04199 -6.14714,-13.71429 -26.610646,-13.71429 -10.095238,0 -20.190476,0 -29.714286,1.42857 0.571429,7.14286 0.571429,12.85714 0.571429,18.57143 0,17.00048 0.571429,33.88566 0.571429,50.85714 0,6.69937 -2.038973,17.02769 -0.44143,19.28593 2.577935,1.60465 41.174486,-4.57718 50.850394,2.42836 6.97848,-24.31696 4.75406,-54.1669 4.77311,-78.85714 z"
         style="fill:none;stroke:#000000;stroke-width:1px;stroke-linecap:butt;stroke-linejoin:miter;stroke-opacity:1"
         id="path3417" />
      <path
         sodipodi:nodetypes="cssacccc"
         inkscape:connector-curvature="0"
         d="m 108.82578,915.69371 c 11.41852,2.48455 11.42858,-0.95382 11.42858,11.42857 0,15.76261 -0.91602,19.28545 -2.03922,35.01027 -0.33807,4.73297 -0.24009,18.32405 -1.96078,27.27545 -0.83011,4.31841 -4,12.5714 -4,12.5714 0,0 -17.365737,-3.87776 -22.85715,-3.99998 -4.36217,0 -17.992028,2.75818 -23.642184,2.32028 -5.650156,-0.43785 -3.320611,-4.07184 -3.214956,-10.32028"
         style="fill:none;stroke:#000000;stroke-width:1px;stroke-linecap:butt;stroke-linejoin:miter;stroke-opacity:1"
         id="path3928" />
    </g>
    <path
       id="path3942"
       style="fill:none;stroke:#000000;stroke-width:1px;stroke-linecap:butt;stroke-linejoin:miter;stroke-opacity:1"
       d="m 237.92105,752.18925 c 3.80112,1.27488 11.51492,-1.52655 13.50752,2.45865 0.92392,1.84784 -2.08885,11.35192 -2.28571,13.71428 -1.32625,15.91502 -0.38666,32.06849 -1.71429,48 -0.18663,2.23961 -4.48927,27.52566 -4.16005,22.3805 -13.65281,-4.57305 -42.07834,3.13447 -54.92641,-2.34667 -0.27066,-2.51435 1.38434,-10.18206 0.65789,-12.60526"
       inkscape:connector-curvature="0"
       sodipodi:nodetypes="csssccc" />
    <g
       id="g5234">
      <path
         inkscape:connector-curvature="0"
         id="path3792"
         d="m 309.57143,901.56125 c 0,20.19048 0,46.2633 0,66.45378 0,2.2772 -3.2456,13.89912 0,20.41266 2.79546,3.4491 40.64315,-0.8179 45.79085,-0.8179 3.25503,0 16.81792,3.0196 16.81792,3.0196 0,0 1.40153,-34.4572 0.6536,-43.43228 -0.81238,-10.82422 2.40617,-41.61512 0.65173,-46.77498 -2.94184,-2.94184 -29.62586,-0.0399 -32.97853,0.40709 -11.64717,1.55296 -29.168,-1.35476 -30.93557,0.73203 z"
         style="fill:none;stroke:#000000;stroke-width:1px;stroke-linecap:butt;stroke-linejoin:miter;stroke-opacity:1"
         sodipodi:nodetypes="cscscccsc" />
      <path
         inkscape:connector-curvature="0"
         id="path3918"
         d="m 319.45005,988.99919 c 0.38474,2.9664 -2.49173,6.0576 0.89636,7.7516 5.95069,2.9754 16.83382,0.2712 23.51073,1.225 14.20953,2.03001 25.2229,2.03921 38.00001,0.8964 1.64288,1.57151 2.57142,-24.35071 2.57142,-28.57145 0,-15.39386 -0.45424,-22.98417 1.46779,-38.36041 0.41296,-3.30374 1.66806,-18.54249 0.32306,-21.23249 -2.39983,-4.79967 -8.0166,-0.79796 -12.07843,-1.63211"
         style="fill:none;stroke:#000000;stroke-width:1px;stroke-linecap:butt;stroke-linejoin:miter;stroke-opacity:1"
         sodipodi:nodetypes="ccccsssc" />
      <g
         transform="matrix(0.98381065,0.17921106,-0.17921106,0.98381065,177.0825,-48.002579)"
         id="g4003">
        <path
           sodipodi:nodetypes="cssc"
           style="fill:none;stroke:#000000;stroke-width:1px;stroke-linecap:butt;stroke-linejoin:miter;stroke-opacity:1"
           d="m 336.95361,945.16524 c 0.85213,4.39525 2.013,10.69252 2.64414,15.11048 0.35122,2.45855 3.05493,7.42857 0.57143,7.42857 -0.44497,0 0.54026,-3.93767 0.57143,-4"
           id="path3796"
           inkscape:connector-curvature="0" />
        <path
           sodipodi:nodetypes="cc"
           style="fill:none;stroke:#000000;stroke-width:1px;stroke-linecap:butt;stroke-linejoin:miter;stroke-opacity:1"
           d="m 344.64158,944.10885 c 1.23471,5.54798 3.91533,20.63835 4.35842,21.96762"
           id="path3798"
           inkscape:connector-curvature="0" />
        <path
           style="fill:none;stroke:#000000;stroke-width:1px;stroke-linecap:butt;stroke-linejoin:miter;stroke-opacity:1"
           d="m 330.70396,966.17112 c -1.98363,-0.52989 0,6.27552 0,0 z"
           id="path3870-9"
           inkscape:connector-curvature="0" />
      </g>
    </g>
    <g
       id="g4082">
      <path
         inkscape:connector-curvature="0"
         id="path3858"
         d="m 393.86466,956.13662 81.71429,-1.71429"
         style="fill:none;stroke:#000000;stroke-width:1px;stroke-linecap:butt;stroke-linejoin:miter;stroke-opacity:1" />
      <path
         sodipodi:nodetypes="csc"
         inkscape:connector-curvature="0"
         id="path3991"
         d="m 460.23392,943.41103 c 6.57096,8.14197 14.02744,8.95001 15.78399,11.17884 1.75656,2.22882 -7.08878,4.57124 -15.14759,11.86038"
         style="fill:none;stroke:#000000;stroke-width:1px;stroke-linecap:butt;stroke-linejoin:miter;stroke-opacity:1" />
    </g>
  </g>
</svg>
