<?xml version="1.0" encoding="UTF-8" standalone="no"?>
<!-- Created with Inkscape (http://www.inkscape.org/) -->

<svg
   xmlns:dc="http://purl.org/dc/elements/1.1/"
   xmlns:cc="http://creativecommons.org/ns#"
   xmlns:rdf="http://www.w3.org/1999/02/22-rdf-syntax-ns#"
   xmlns:svg="http://www.w3.org/2000/svg"
   xmlns="http://www.w3.org/2000/svg"
   xmlns:sodipodi="http://sodipodi.sourceforge.net/DTD/sodipodi-0.dtd"
   xmlns:inkscape="http://www.inkscape.org/namespaces/inkscape"
   width="712.72888"
   height="382.29178"
   id="svg4109"
   version="1.1"
   inkscape:version="0.48.2 r9819"
   sodipodi:docname="phases.svg">
  <defs
     id="defs4111" />
  <sodipodi:namedview
     id="base"
     pagecolor="#ffffff"
     bordercolor="#666666"
     borderopacity="1.0"
     inkscape:pageopacity="0.0"
     inkscape:pageshadow="2"
     inkscape:zoom="1.3342372"
     inkscape:cx="362.86037"
     inkscape:cy="213.08942"
     inkscape:document-units="px"
     inkscape:current-layer="layer2"
     showgrid="false"
     fit-margin-left="2"
     fit-margin-top="2"
     fit-margin-right="2"
     fit-margin-bottom="2"
     inkscape:window-width="1280"
     inkscape:window-height="752"
     inkscape:window-x="0"
     inkscape:window-y="0"
     inkscape:window-maximized="1"
     showguides="true"
     inkscape:guide-bbox="true" />
  <metadata
     id="metadata4114">
    <rdf:RDF>
      <cc:Work
         rdf:about="">
        <dc:format>image/svg+xml</dc:format>
        <dc:type
           rdf:resource="http://purl.org/dc/dcmitype/StillImage" />
        <dc:title></dc:title>
      </cc:Work>
    </rdf:RDF>
  </metadata>
  <g
     inkscape:label="Layer 1"
     inkscape:groupmode="layer"
     id="layer1"
     style="display:none"
     transform="translate(-9.8631078,-710.50905)">
    <g
       id="g3628"
       transform="translate(-1.851549,-137.64842)">
      <path
         inkscape:connector-curvature="0"
         id="path3409"
         d="m 46.285714,912.93361 c -1.358334,4.64509 -0.04626,9.55917 -0.571428,14.28572 -3.067842,27.61057 -5.427034,-9.9232 0.571428,-14.28572 10.298529,-7.48984 14.249381,10.27966 0.571429,8"
         style="fill:none;stroke:#000000;stroke-width:1px;stroke-linecap:butt;stroke-linejoin:miter;stroke-opacity:1" />
      <path
         inkscape:connector-curvature="0"
         id="path3405"
         d="m 24.571429,920.36218 c -3.622931,4.05818 0,5.09151 0,0 z"
         style="fill:none;stroke:#000000;stroke-width:1px;stroke-linecap:butt;stroke-linejoin:miter;stroke-opacity:1" />
      <path
         inkscape:connector-curvature="0"
         id="path3407"
         d="m 41.714286,910.6479 c -25.122879,-2.79809 8.317316,17.48145 -14.285715,13.71428"
         style="fill:none;stroke:#000000;stroke-width:1px;stroke-linecap:butt;stroke-linejoin:miter;stroke-opacity:1" />
      <path
         inkscape:connector-curvature="0"
         id="path3411"
         d="m 61.142857,898.07647 c 1.027642,6.83698 0.571429,22.32764 0.571429,25.14286"
         style="fill:none;stroke:#000000;stroke-width:1px;stroke-linecap:butt;stroke-linejoin:miter;stroke-opacity:1" />
    </g>
    <path
       id="path3417"
       style="fill:none;stroke:#000000;stroke-width:1px;stroke-linecap:butt;stroke-linejoin:miter;stroke-opacity:1"
       d="m 69.729022,738.65105 c 0,-21.04199 -6.14714,-13.71429 -26.610646,-13.71429 -10.095238,0 -20.190476,0 -29.714286,1.42857 0.571429,7.14286 0.571429,12.85714 0.571429,18.57143 0,17.00048 0.571429,33.88566 0.571429,50.85714 0,6.69937 -2.038973,17.02769 -0.44143,19.28593 2.577935,1.60465 41.174486,-4.57718 50.850394,2.42836 6.97848,-24.31696 4.75406,-54.1669 4.77311,-78.85714 z"
       inkscape:connector-curvature="0"
       sodipodi:nodetypes="cscssccc" />
    <g
       id="g4332"
       transform="translate(7.8836823,-2.913818e-6)">
      <path
         sodipodi:nodetypes="cscsc"
         inkscape:connector-curvature="0"
         id="path4179"
         d="m 191.12127,714.54772 c -33.7054,58.3306 -48.34031,99.31098 -46.29067,107.13761 0.81042,3.09463 42.85508,-0.29551 92.94232,4.97684 -4.99088,-15.93694 -15.7293,-26.20823 -20.22701,-48.33407 -4.49771,-22.12584 -14.04141,-47.82933 -26.42464,-63.78038 z"
         style="fill:none;stroke:#000000;stroke-width:1px;stroke-linecap:butt;stroke-linejoin:miter;stroke-opacity:1" />
      <g
         transform="translate(3.1727603,-1.0780609)"
         id="g4295">
        <path
           style="fill:none;stroke:#000000;stroke-width:1px;stroke-linecap:butt;stroke-linejoin:miter;stroke-opacity:1"
           d="m 164.78567,790.51099 c -4.15797,8.31594 7.2932,-17.82366 8.2769,-23.32583 2.21691,9.0199 1.50489,18.51809 1.50489,27.8405"
           id="path4189"
           inkscape:connector-curvature="0" />
        <path
           style="fill:none;stroke:#000000;stroke-width:1px;stroke-linecap:butt;stroke-linejoin:miter;stroke-opacity:1"
           d="m 168.5479,781.48164 c 3.33343,-0.35359 5.37398,0.92431 8.2769,1.50489"
           id="path4191"
           inkscape:connector-curvature="0" />
        <path
           style="fill:none;stroke:#000000;stroke-width:1px;stroke-linecap:butt;stroke-linejoin:miter;stroke-opacity:1"
           d="m 194.13106,773.20473 c -28.29588,-9.69703 -4.81484,16.40169 -6.01957,18.81115 -2.15164,4.30328 -8.89268,2.804 -9.7818,-0.75245"
           id="path4193"
           inkscape:connector-curvature="0" />
        <path
           style="fill:none;stroke:#000000;stroke-width:1px;stroke-linecap:butt;stroke-linejoin:miter;stroke-opacity:1"
           d="m 198.64573,772.45229 c 0.94834,4.26499 -3.00978,29.0795 -3.00978,20.31604"
           id="path4195"
           inkscape:connector-curvature="0" />
        <path
           style="fill:none;stroke:#000000;stroke-width:1px;stroke-linecap:butt;stroke-linejoin:miter;stroke-opacity:1"
           d="m 186.6066,771.69984 c 9.4119,-0.76788 16.4189,3.76223 25.58316,3.76223"
           id="path4197"
           inkscape:connector-curvature="0" />
      </g>
    </g>
    <g
       id="g4341"
       transform="translate(-0.95703125,-2.913818e-6)">
      <path
         sodipodi:nodetypes="cscsc"
         inkscape:connector-curvature="0"
         id="path4179-7"
         d="m 357.32549,714.54772 c -33.7054,58.3306 -48.34031,99.31098 -46.29067,107.13761 0.81042,3.09463 42.85508,-0.29551 92.94232,4.97684 -4.99088,-15.93694 -15.7293,-26.20823 -20.22701,-48.33407 -4.49771,-22.12584 -14.04141,-47.82933 -26.42464,-63.78038 z"
         style="fill:none;stroke:#000000;stroke-width:1px;stroke-linecap:butt;stroke-linejoin:miter;stroke-opacity:1" />
      <g
         transform="translate(3.1727603,-1.4542809)"
         id="g4288">
        <path
           style="fill:none;stroke:#000000;stroke-width:1px;stroke-linecap:butt;stroke-linejoin:miter;stroke-opacity:1"
           d="m 330.98989,790.88721 c -4.15797,8.31594 7.2932,-17.82366 8.2769,-23.32583 2.21691,9.0199 1.50489,18.51809 1.50489,27.8405"
           id="path4189-2"
           inkscape:connector-curvature="0" />
        <path
           style="fill:none;stroke:#000000;stroke-width:1px;stroke-linecap:butt;stroke-linejoin:miter;stroke-opacity:1"
           d="m 334.75212,781.85786 c 3.33343,-0.35359 5.37398,0.92431 8.2769,1.50489"
           id="path4191-9"
           inkscape:connector-curvature="0" />
        <path
           style="fill:none;stroke:#000000;stroke-width:1px;stroke-linecap:butt;stroke-linejoin:miter;stroke-opacity:1"
           d="m 360.33528,773.58095 c -28.29588,-9.69703 -4.81484,16.40169 -6.01957,18.81115 -2.15164,4.30328 -8.89268,2.804 -9.7818,-0.75245"
           id="path4193-8"
           inkscape:connector-curvature="0" />
        <path
           style="fill:none;stroke:#000000;stroke-width:1px;stroke-linecap:butt;stroke-linejoin:miter;stroke-opacity:1"
           d="m 364.84995,772.82851 c 0.94834,4.26499 -3.00978,29.0795 -3.00978,20.31604"
           id="path4195-1"
           inkscape:connector-curvature="0" />
        <path
           style="fill:none;stroke:#000000;stroke-width:1px;stroke-linecap:butt;stroke-linejoin:miter;stroke-opacity:1"
           d="m 352.81082,772.07606 c 9.4119,-0.76788 16.4189,3.76223 25.58316,3.76223"
           id="path4197-1"
           inkscape:connector-curvature="0" />
      </g>
    </g>
    <g
       id="g4350"
       transform="translate(3.6599426,-2.913818e-6)">
      <path
         sodipodi:nodetypes="cscsc"
         inkscape:connector-curvature="0"
         id="path4179-6"
         d="m 510.07202,714.54772 c -33.7054,58.3306 -48.34031,99.31098 -46.29067,107.13761 0.81042,3.09463 42.85508,-0.29551 92.94232,4.97684 -4.99088,-15.93694 -15.7293,-26.20823 -20.22701,-48.33407 -4.49771,-22.12584 -14.04141,-47.82933 -26.42464,-63.78038 z"
         style="fill:none;stroke:#000000;stroke-width:1px;stroke-linecap:butt;stroke-linejoin:miter;stroke-opacity:1" />
      <g
         transform="translate(3.1727603,-4.4640709)"
         id="g4281">
        <path
           style="fill:none;stroke:#000000;stroke-width:1px;stroke-linecap:butt;stroke-linejoin:miter;stroke-opacity:1"
           d="m 483.73642,793.897 c -4.15797,8.31594 7.2932,-17.82366 8.2769,-23.32583 2.21691,9.0199 1.50489,18.51809 1.50489,27.8405"
           id="path4189-1"
           inkscape:connector-curvature="0" />
        <path
           style="fill:none;stroke:#000000;stroke-width:1px;stroke-linecap:butt;stroke-linejoin:miter;stroke-opacity:1"
           d="m 487.49865,784.86765 c 3.33343,-0.35359 5.37398,0.92431 8.2769,1.50489"
           id="path4191-1"
           inkscape:connector-curvature="0" />
        <path
           style="fill:none;stroke:#000000;stroke-width:1px;stroke-linecap:butt;stroke-linejoin:miter;stroke-opacity:1"
           d="m 513.08181,776.59074 c -28.29588,-9.69703 -4.81484,16.40169 -6.01957,18.81115 -2.15164,4.30328 -8.89268,2.804 -9.7818,-0.75245"
           id="path4193-81"
           inkscape:connector-curvature="0" />
        <path
           style="fill:none;stroke:#000000;stroke-width:1px;stroke-linecap:butt;stroke-linejoin:miter;stroke-opacity:1"
           d="m 517.59648,775.8383 c 0.94834,4.26499 -3.00978,29.0795 -3.00978,20.31604"
           id="path4195-15"
           inkscape:connector-curvature="0" />
        <path
           style="fill:none;stroke:#000000;stroke-width:1px;stroke-linecap:butt;stroke-linejoin:miter;stroke-opacity:1"
           d="m 505.55735,775.08585 c 9.4119,-0.76788 16.4189,3.76223 25.58316,3.76223"
           id="path4197-0"
           inkscape:connector-curvature="0" />
      </g>
    </g>
    <path
       style="fill:none;stroke:#000000;stroke-width:1px;stroke-linecap:butt;stroke-linejoin:miter;stroke-opacity:1"
       d="m 671.09545,714.54772 c -33.7054,58.3306 -48.3403,99.31098 -46.29066,107.13761 0.81042,3.09463 42.85507,-0.29551 92.94231,4.97684 -4.99088,-15.93694 -15.7293,-26.20823 -20.22701,-48.33407 -4.49771,-22.12584 -14.04141,-47.82933 -26.42464,-63.78038 z"
       id="path4179-0"
       inkscape:connector-curvature="0"
       sodipodi:nodetypes="cscsc" />
    <g
       id="g4274"
       transform="translate(3.1727652,-5.2165138)">
      <path
         inkscape:connector-curvature="0"
         id="path4189-8"
         d="m 644.75985,794.64944 c -4.15797,8.31594 7.2932,-17.82366 8.2769,-23.32583 2.21691,9.0199 1.50489,18.51809 1.50489,27.8405"
         style="fill:none;stroke:#000000;stroke-width:1px;stroke-linecap:butt;stroke-linejoin:miter;stroke-opacity:1" />
      <path
         inkscape:connector-curvature="0"
         id="path4191-3"
         d="m 648.52208,785.62009 c 3.33343,-0.35359 5.37398,0.92431 8.2769,1.50489"
         style="fill:none;stroke:#000000;stroke-width:1px;stroke-linecap:butt;stroke-linejoin:miter;stroke-opacity:1" />
      <path
         inkscape:connector-curvature="0"
         id="path4193-7"
         d="m 674.10524,777.34318 c -28.29588,-9.69703 -4.81484,16.40169 -6.01957,18.81115 -2.15164,4.30328 -8.89268,2.804 -9.7818,-0.75245"
         style="fill:none;stroke:#000000;stroke-width:1px;stroke-linecap:butt;stroke-linejoin:miter;stroke-opacity:1" />
      <path
         inkscape:connector-curvature="0"
         id="path4195-0"
         d="m 678.61991,776.59074 c 0.94834,4.26499 -3.00978,29.0795 -3.00978,20.31604"
         style="fill:none;stroke:#000000;stroke-width:1px;stroke-linecap:butt;stroke-linejoin:miter;stroke-opacity:1" />
      <path
         inkscape:connector-curvature="0"
         id="path4197-13"
         d="m 666.58078,775.83829 c 9.4119,-0.76788 16.4189,3.76223 25.58316,3.76223"
         style="fill:none;stroke:#000000;stroke-width:1px;stroke-linecap:butt;stroke-linejoin:miter;stroke-opacity:1" />
    </g>
    <path
       style="fill:none;stroke:#000000;stroke-width:1px;stroke-linecap:butt;stroke-linejoin:miter;stroke-opacity:1"
       d="m 122.56234,930.08971 c -33.705397,58.3306 -48.340296,99.31099 -46.290656,107.13759 0.81042,3.0947 42.855066,-0.2955 92.942306,4.9769 -4.99088,-15.937 -15.7293,-26.2083 -20.22701,-48.33411 -4.49771,-22.12584 -14.04141,-47.82933 -26.42464,-63.78038 z"
       id="path4179-0-8"
       inkscape:connector-curvature="0"
       sodipodi:nodetypes="cscsc" />
    <path
       id="path3417-6"
       style="fill:none;stroke:#000000;stroke-width:1px;stroke-linecap:butt;stroke-linejoin:miter;stroke-opacity:1"
       d="m 308.53817,954.19305 c 0,-21.04199 -6.14714,-13.71429 -26.61064,-13.71429 -10.09524,0 -20.19048,0 -29.71429,1.42857 0.57143,7.14286 0.57143,12.85714 0.57143,18.57143 0,17.00048 0.57143,33.88566 0.57143,50.85714 0,6.6993 -2.03897,17.0277 -0.44143,19.2859 2.57793,1.6047 41.17448,-4.5772 50.85039,2.4284 6.97848,-24.317 4.75406,-54.16691 4.77311,-78.85715 z"
       inkscape:connector-curvature="0"
       sodipodi:nodetypes="cscssccc" />
    <path
       id="path3417-6-5"
       style="fill:none;stroke:#000000;stroke-width:1px;stroke-linecap:butt;stroke-linejoin:miter;stroke-opacity:1"
       d="m 466.4264,954.19302 c 0,-21.04199 -6.14714,-13.71429 -26.61064,-13.71429 -10.09524,0 -20.19048,0 -29.71429,1.42857 0.57143,7.14286 0.57143,12.85714 0.57143,18.57143 0,17.00048 0.57143,33.88566 0.57143,50.85707 0,6.6994 -2.03897,17.0278 -0.44143,19.286 2.57793,1.6047 41.17448,-4.5772 50.85039,2.4284 6.97848,-24.3171 4.75406,-54.16694 4.77311,-78.85718 z"
       inkscape:connector-curvature="0"
       sodipodi:nodetypes="cscssccc" />
    <g
       id="g4496"
       transform="translate(0,-1.5048971)">
      <path
         sodipodi:nodetypes="cscssccc"
         inkscape:connector-curvature="0"
         d="m 624.69088,897.75956 c 0,-21.04199 -6.14714,-13.71429 -26.61064,-13.71429 -10.09524,0 -20.19048,0 -29.71429,1.42857 0.57143,7.14286 0.57143,12.85714 0.57143,18.57143 0,17.00048 0.57143,33.88565 0.57143,50.85715 0,6.6994 -2.03897,17.0278 -0.44143,19.286 2.57793,1.6047 41.17448,-4.5772 50.85039,2.4284 6.97848,-24.3171 4.75406,-54.167 4.77311,-78.85726 z"
         style="fill:none;stroke:#000000;stroke-width:1px;stroke-linecap:butt;stroke-linejoin:miter;stroke-opacity:1"
         id="path3417-6-5-3" />
      <path
         sodipodi:nodetypes="cscssccc"
         inkscape:connector-curvature="0"
         d="m 623.93844,1013.6363 c 0,-21.04205 -6.14714,-13.71433 -26.61064,-13.71433 -10.09524,0 -20.19048,0 -29.71429,1.42863 0.57143,7.1429 0.57143,12.8571 0.57143,18.5714 0,17.0005 0.57143,33.8857 0.57143,50.8571 0,6.6994 -2.03897,17.0278 -0.44143,19.286 2.57793,1.6047 41.17448,-4.5772 50.85039,2.4284 6.97848,-24.3171 4.75406,-54.1669 4.77311,-78.8572 z"
         style="fill:none;stroke:#000000;stroke-width:1px;stroke-linecap:butt;stroke-linejoin:miter;stroke-opacity:1"
         id="path3417-6-5-8" />
    </g>
  </g>
  <g
     inkscape:groupmode="layer"
     id="layer2"
     inkscape:label="Layer"
     transform="translate(-9.8631078,-710.50905)">
    <g
       id="g4804">
      <path
         sodipodi:nodetypes="csscc"
         inkscape:connector-curvature="0"
         id="path4523"
         d="m 199.39818,713.00905 c -6.29751,12.08437 -51.45827,107.30783 -48.90899,109.85711 9.58388,9.58388 46.67533,-6.00772 58.69079,0 2.7663,1.38315 36.63919,5.49778 36.86985,5.26713 0.26098,-0.26099 -41.78985,-106.1511 -46.65165,-115.12424 z"
         style="fill:none;stroke:#000000;stroke-width:1px;stroke-linecap:butt;stroke-linejoin:miter;stroke-opacity:1" />
      <g
         transform="translate(0,-3)"
         id="g4639">
        <path
           style="fill:none;stroke:#000000;stroke-width:1px;stroke-linecap:butt;stroke-linejoin:miter;stroke-opacity:1"
           d="m 171.55768,795.77811 c -9.09017,9.09017 12.03913,-19.39889 12.03913,-21.06849 0,-1.03414 -0.50163,-2.00652 -0.75244,-3.00978 2.34941,5.94407 1.50489,12.50547 1.50489,18.81115 0,2.25734 2.25734,6.77201 0,6.77201 -0.75245,0 0,-1.50489 0,-2.25734"
           id="path4541"
           inkscape:connector-curvature="0" />
        <path
           style="fill:none;stroke:#000000;stroke-width:1px;stroke-linecap:butt;stroke-linejoin:miter;stroke-opacity:1"
           d="m 175.31991,782.98653 c 4.00621,-1.03603 8.9583,1.91664 11.28669,0.75244"
           id="path4543"
           inkscape:connector-curvature="0" />
        <path
           style="fill:none;stroke:#000000;stroke-width:1px;stroke-linecap:butt;stroke-linejoin:miter;stroke-opacity:1"
           d="m 203.16041,773.20473 c -4.75288,-2.41196 -15.55273,0.49728 -12.03914,7.52446 1.8247,3.64938 10.14173,4.54727 7.52446,9.7818 -1.22271,2.44543 -10.53424,7.93878 -10.53424,3.76223"
           id="path4545"
           inkscape:connector-curvature="0" />
        <path
           style="fill:none;stroke:#000000;stroke-width:1px;stroke-linecap:butt;stroke-linejoin:miter;stroke-opacity:1"
           d="m 206.92264,778.47185 c 0.96314,4.00131 -1.22911,20.59182 -3.76223,18.05871"
           id="path4547"
           inkscape:connector-curvature="0" />
        <path
           style="fill:none;stroke:#000000;stroke-width:1px;stroke-linecap:butt;stroke-linejoin:miter;stroke-opacity:1"
           d="m 196.3884,777.71941 c 6.06073,-0.0516 16.46037,-0.93933 18.0587,2.25733"
           id="path4549"
           inkscape:connector-curvature="0" />
      </g>
    </g>
    <g
       id="g4813">
      <path
         sodipodi:nodetypes="cssssc"
         inkscape:connector-curvature="0"
         id="path4503"
         d="m 355.15449,714.51395 c -8.69052,13.38496 -49.79677,103.7022 -47.40409,106.09488 2.2622,2.2622 16.75507,-0.75245 20.31604,-0.75245 12.20187,0 68.57927,13.43734 77.50193,4.51468 2.90608,-2.90608 -18.27588,-39.20887 -19.56359,-42.13698 -11.81337,-26.86228 -18.91692,-47.83119 -30.85029,-67.72013 z"
         style="fill:none;stroke:#000000;stroke-width:1px;stroke-linecap:butt;stroke-linejoin:miter;stroke-opacity:1" />
      <g
         transform="translate(0,-5.1593848)"
         id="g4646">
        <path
           style="fill:none;stroke:#000000;stroke-width:1px;stroke-linecap:butt;stroke-linejoin:miter;stroke-opacity:1"
           d="m 333.33356,792.76833 c -0.70562,0.70562 -2.31357,4.5709 -1.50489,3.76223 4.25898,-4.25898 5.49359,-20.68193 10.53424,-25.58317 1.93319,2.68058 1.67874,5.38393 2.25734,8.27691 0.61811,3.09055 2.25533,6.01153 3.00978,9.02935 0.6697,2.67877 -1.91912,12.37735 0,14.29647 0.53206,0.53206 0.33651,-1.58433 0,-2.25733"
           id="path4555"
           inkscape:connector-curvature="0" />
        <path
           style="fill:none;stroke:#000000;stroke-width:1px;stroke-linecap:butt;stroke-linejoin:miter;stroke-opacity:1"
           d="m 335.5909,783.73897 c 3.34643,-0.25218 15.04892,5.80816 15.04892,3.00979"
           id="path4557"
           inkscape:connector-curvature="0" />
        <path
           style="fill:none;stroke:#000000;stroke-width:1px;stroke-linecap:butt;stroke-linejoin:miter;stroke-opacity:1"
           d="m 361.92651,777.71941 c -1.00326,-0.75245 -1.93442,-1.61212 -3.00979,-2.25734 -3.1172,-1.87032 -10.80732,3.21607 -9.02935,6.77201 1.00434,2.00867 13.81115,9.51467 9.7818,13.54403 -1.6102,1.6102 -14.14577,1.35419 -12.03914,-0.75245"
           id="path4559"
           inkscape:connector-curvature="0" />
        <path
           style="fill:none;stroke:#000000;stroke-width:1px;stroke-linecap:butt;stroke-linejoin:miter;stroke-opacity:1"
           d="m 367.19363,775.46207 c -0.63397,4.88426 2.58374,20.31604 -3.76223,20.31604"
           id="path4561"
           inkscape:connector-curvature="0" />
        <path
           style="fill:none;stroke:#000000;stroke-width:1px;stroke-linecap:butt;stroke-linejoin:miter;stroke-opacity:1"
           d="m 357.41183,773.95718 c 6.1557,-0.0688 13.53271,0.37056 18.81115,3.00978"
           id="path4563"
           inkscape:connector-curvature="0" />
      </g>
    </g>
    <g
       id="g4822">
      <path
         sodipodi:nodetypes="csssc"
         inkscape:connector-curvature="0"
         id="path4505"
         d="m 513.92059,715.26639 c 0.68152,-8.07539 -50.41388,99.07503 -48.15654,106.09488 0.52744,1.64023 29.64061,3.76223 54.17611,3.76223 5.65345,0 35.90518,5.47935 40.63208,0.75245 2.02579,-2.02579 -37.41427,-76.73915 -46.65165,-110.60956 z"
         style="fill:none;stroke:#000000;stroke-width:1px;stroke-linecap:butt;stroke-linejoin:miter;stroke-opacity:1" />
      <g
         transform="translate(0,-5.493166)"
         id="g4653">
        <path
           style="fill:none;stroke:#000000;stroke-width:1px;stroke-linecap:butt;stroke-linejoin:miter;stroke-opacity:1"
           d="m 489.08987,792.76833 c -0.38196,0.38196 -1.25623,3.00978 -0.75244,3.00978 1.27607,0 11.35015,-18.92061 10.53424,-22.57338 0.85083,4.25412 0.75245,2.48332 0.75245,5.26712 0,5.79592 0.75244,11.40067 0.75244,17.30626 0,1.07626 0,8.79218 0,5.26712"
           id="path4565"
           inkscape:connector-curvature="0" />
        <path
           style="fill:none;stroke:#000000;stroke-width:1px;stroke-linecap:butt;stroke-linejoin:miter;stroke-opacity:1"
           d="m 489.84232,789.0061 c 3.89804,4.52302 4.85694,-0.58132 9.02935,1.50489"
           id="path4567"
           inkscape:connector-curvature="0"
           sodipodi:nodetypes="cc" />
        <path
           style="fill:none;stroke:#000000;stroke-width:1px;stroke-linecap:butt;stroke-linejoin:miter;stroke-opacity:1"
           d="m 516.93038,780.72919 c -26.29782,-2.81627 4.12831,10.66303 -6.77202,14.29647 -3.04866,1.01623 -5.97598,-0.35443 -8.2769,-1.50489"
           id="path4569"
           inkscape:connector-curvature="0" />
        <path
           style="fill:none;stroke:#000000;stroke-width:1px;stroke-linecap:butt;stroke-linejoin:miter;stroke-opacity:1"
           d="m 522.1975,779.22429 c -2.56154,1.88588 -0.75245,26.15479 -0.75245,17.30627"
           id="path4571"
           inkscape:connector-curvature="0"
           sodipodi:nodetypes="cc" />
        <path
           style="fill:none;stroke:#000000;stroke-width:1px;stroke-linecap:butt;stroke-linejoin:miter;stroke-opacity:1"
           d="m 509.42548,777.46207 c 2.64845,3.53208 27.62868,3.00978 23.32583,3.00978"
           id="path4573"
           inkscape:connector-curvature="0"
           sodipodi:nodetypes="cc" />
      </g>
    </g>
    <g
       id="g4831">
      <path
         sodipodi:nodetypes="csccsc"
         inkscape:connector-curvature="0"
         id="path4511"
         d="m 672.68669,719.02862 c -14.76731,14.02806 -27.98525,61.23763 -41.38453,88.03618 -1.23771,2.47541 -8.96038,16.62278 -8.2769,17.30626 21.3455,-9.09447 85.1839,8.6088 97.06552,-0.75245 0.16712,-0.16712 -16.71733,-33.43466 -18.81115,-37.62229 -12.36284,-24.72568 -19.47463,-41.89234 -28.59294,-66.9677 z"
         style="fill:none;stroke:#000000;stroke-width:1px;stroke-linecap:butt;stroke-linejoin:miter;stroke-opacity:1" />
      <g
         transform="translate(1,-5.493166)"
         id="g4660">
        <path
           style="fill:none;stroke:#000000;stroke-width:1px;stroke-linecap:butt;stroke-linejoin:miter;stroke-opacity:1"
           d="m 651.6182,797.283 c -3.4168,-3.4168 -1.90405,-10.12722 6.01957,-21.82093 -2.14711,8.03551 2.25734,15.85425 2.25734,23.32582"
           id="path4575"
           inkscape:connector-curvature="0"
           sodipodi:nodetypes="ccc" />
        <path
           style="fill:none;stroke:#000000;stroke-width:1px;stroke-linecap:butt;stroke-linejoin:miter;stroke-opacity:1"
           d="m 649.36086,788.25365 c 3.77507,-0.27382 7.41091,-0.0568 10.53425,1.50489"
           id="path4577"
           inkscape:connector-curvature="0" />
        <path
           style="fill:none;stroke:#000000;stroke-width:1px;stroke-linecap:butt;stroke-linejoin:miter;stroke-opacity:1"
           d="m 674.19158,778.47185 c -24.40042,-1.86015 -0.73125,12.78099 -5.26712,15.04892 -1.86059,0.9303 -12.12987,1.17404 -6.77201,-1.50489"
           id="path4579"
           inkscape:connector-curvature="0" />
        <path
           style="fill:none;stroke:#000000;stroke-width:1px;stroke-linecap:butt;stroke-linejoin:miter;stroke-opacity:1"
           d="m 683.22093,777.71941 c -2.56765,3.45832 -3.7716,21.06848 -8.2769,21.06848"
           id="path4581"
           inkscape:connector-curvature="0" />
        <path
           style="fill:none;stroke:#000000;stroke-width:1px;stroke-linecap:butt;stroke-linejoin:miter;stroke-opacity:1"
           d="m 673.43914,779.2243 c 4.39222,0.90678 15.80136,-3.1693 15.80136,3.00978"
           id="path4583"
           inkscape:connector-curvature="0" />
      </g>
    </g>
    <g
       id="g4858">
      <path
         sodipodi:nodetypes="cssssc"
         inkscape:connector-curvature="0"
         id="path4519"
         d="m 564.33447,878.54717 c 1.55858,19.67404 -9.31856,78.71761 4.51468,92.55085 3.38906,3.38907 25.57039,-1.50489 30.85028,-1.50489 3.75085,0 22.64913,3.61073 23.32583,2.25733 5.39002,-10.78005 6.59204,-83.70147 -2.25734,-92.55085 -7.02909,-7.02908 -46.26444,-0.75244 -56.43345,-0.75244 z"
         style="fill:none;stroke:#000000;stroke-width:1px;stroke-linecap:butt;stroke-linejoin:miter;stroke-opacity:1" />
      <g
         transform="translate(3,16)"
         id="g4629">
        <path
           style="fill:none;stroke:#000000;stroke-width:1px;stroke-linecap:butt;stroke-linejoin:miter;stroke-opacity:1"
           d="m 581.64073,928.71349 c -5.49313,11.08314 2.93904,-9.22873 -2.25734,3.76223 -0.27945,0.69863 2.10977,0.73783 2.25734,0 0.24594,-1.22972 0,-2.50815 0,-3.76223 z"
           id="path4597"
           inkscape:connector-curvature="0" />
        <path
           style="fill:none;stroke:#000000;stroke-width:1px;stroke-linecap:butt;stroke-linejoin:miter;stroke-opacity:1"
           d="m 590.67008,910.90234 c 0,1.57355 0,27.93342 0,18.05871"
           id="path4599"
           inkscape:connector-curvature="0" />
        <path
           style="fill:none;stroke:#000000;stroke-width:1px;stroke-linecap:butt;stroke-linejoin:miter;stroke-opacity:1"
           d="m 600.45188,910.90234 c -1.34228,3.68492 -1.94231,19.12618 -2.25734,18.81115"
           id="path4601"
           inkscape:connector-curvature="0" />
      </g>
    </g>
    <g
       id="g4865">
      <path
         sodipodi:nodetypes="cscssc"
         inkscape:connector-curvature="0"
         id="path4521"
         d="m 566.59181,998.93852 c -0.0346,17.18718 -4.64313,75.86858 1.50489,89.54108 2.30312,5.1219 22.28115,-2.3548 27.08806,-0.7525 3.50107,1.1671 25.30301,2.5375 27.8405,0 5.43674,-5.4367 2.14679,-87.3942 -2.25734,-91.79836 -0.54013,-0.54013 -49.29816,3.00978 -54.17611,3.00978 z"
         style="fill:none;stroke:#000000;stroke-width:1px;stroke-linecap:butt;stroke-linejoin:miter;stroke-opacity:1" />
      <g
         transform="translate(1,10)"
         id="g4634">
        <path
           style="fill:none;stroke:#000000;stroke-width:1px;stroke-linecap:butt;stroke-linejoin:miter;stroke-opacity:1"
           d="m 573.36382,1051.6097 c -1.44391,4.2933 0,6.4745 0,0 z"
           id="path4603"
           inkscape:connector-curvature="0" />
        <path
           style="fill:none;stroke:#000000;stroke-width:1px;stroke-linecap:butt;stroke-linejoin:miter;stroke-opacity:1"
           d="m 590.67008,1040.323 c -25.19853,0.5718 9.10261,13.5441 -12.03914,13.5441"
           id="path4605"
           inkscape:connector-curvature="0" />
        <path
           style="fill:none;stroke:#000000;stroke-width:1px;stroke-linecap:butt;stroke-linejoin:miter;stroke-opacity:1"
           d="m 585.40296,1054.6195 c 2.28449,0 13.5574,-2.2439 9.02935,-6.772 -0.88279,-0.8828 -3.56874,-1.3114 -4.51468,-2.2573 -2.41783,-2.4179 5.95605,-7.3488 7.52446,-3.7623 2.71838,6.796 1.69156,1.5107 0.75245,5.2672 -0.21104,0.8441 -1.4008,7.5244 -2.25734,7.5244 -2.96302,0 7.57313,-10.4856 8.27691,-9.7818 2.17758,2.1776 -2.42381,12.5386 -0.75245,7.5245 0.37546,-1.1264 5.70026,-10.1011 7.52446,-8.2769 1.64079,1.6408 -0.31934,9.9414 -1.50489,10.5342"
           id="path4607"
           inkscape:connector-curvature="0" />
      </g>
    </g>
    <g
       id="g4840">
      <path
         sodipodi:nodetypes="cccssc"
         inkscape:connector-curvature="0"
         id="path4513"
         d="m 122.64869,928.96105 c -10.65396,26.66351 -52.552209,99.83325 -48.15654,107.59975 2.40665,7.1205 38.32557,1.6761 53.42366,1.5049 8.13357,0 41.58506,4.3142 46.65165,-0.7524 0.88842,-0.8884 -14.53712,-18.54 -15.80136,-21.0685 -13.933,-27.86603 -28.35652,-58.82718 -36.11741,-87.28375 z"
         style="fill:none;stroke:#000000;stroke-width:1px;stroke-linecap:butt;stroke-linejoin:miter;stroke-opacity:1" />
      <g
         transform="translate(0,-6)"
         id="g4625">
        <path
           style="fill:none;stroke:#000000;stroke-width:1px;stroke-linecap:butt;stroke-linejoin:miter;stroke-opacity:1"
           d="m 109.10466,992.91895 c 2.35573,2.4658 1.5049,32.03875 1.5049,20.31605"
           id="path4585"
           inkscape:connector-curvature="0" />
        <path
           style="fill:none;stroke:#000000;stroke-width:1px;stroke-linecap:butt;stroke-linejoin:miter;stroke-opacity:1"
           d="m 119.63891,1014.7399 c -1.41383,-2.8277 -1.42605,-15.30306 -3.00979,-21.82095 2.55442,-1.57214 3.56973,-1.50489 6.01957,-1.50489 2.62365,0 5.05658,0.12082 6.01957,3.00978 1.76094,5.28282 0.80225,7.52446 -6.01957,7.52446 -2.25734,0 -6.77201,2.2573 -6.77201,0 0,-1.2342 12.59985,5.6361 14.29647,9.0294"
           id="path4611"
           inkscape:connector-curvature="0" />
      </g>
    </g>
    <g
       id="g4846">
      <path
         sodipodi:nodetypes="cccsc"
         inkscape:connector-curvature="0"
         id="path4515"
         d="m 250.5645,941.00018 c 0.53284,14.13509 -6.56574,80.71792 -3.00978,89.54102 13.72237,-1.3422 51.74753,7.2745 58.69079,1.5049 7.27313,-7.2731 5.54803,-87.00278 -0.75245,-93.30326 -5.81311,-5.81311 -47.83528,0.32281 -54.92856,2.25734 z"
         style="fill:none;stroke:#000000;stroke-width:1px;stroke-linecap:butt;stroke-linejoin:miter;stroke-opacity:1" />
      <g
         transform="translate(0,11.546003)"
         id="g4621">
        <path
           style="fill:none;stroke:#000000;stroke-width:1px;stroke-linecap:butt;stroke-linejoin:miter;stroke-opacity:1"
           d="m 264.86098,977.87003 c 0,2.62318 0,31.74377 0,16.55381"
           id="path4589"
           inkscape:connector-curvature="0" />
        <path
           style="fill:none;stroke:#000000;stroke-width:1px;stroke-linecap:butt;stroke-linejoin:miter;stroke-opacity:1"
           d="m 270.88055,991.41406 c 0,5.88978 -0.37034,-10.32372 0.75244,-12.03914 0.41477,-2.25838 14.67292,-1.12889 10.53425,3.00979 -0.67361,0.6736 -9.7818,4.40371 -9.7818,1.50489 0,-1.4651 4.79724,4.27974 9.7818,6.77201 1.54527,0.77264 1.39187,2.89677 2.25733,3.76223"
           id="path4613"
           inkscape:connector-curvature="0" />
      </g>
    </g>
    <g
       id="g4852">
      <path
         sodipodi:nodetypes="cssccc"
         inkscape:connector-curvature="0"
         id="path4517"
         d="m 408.57816,943.25752 c 4.92161,34.43689 -4.26137,71.10318 -1.35046,84.89468 1.47831,7.004 18.20487,4.6464 57.03146,4.6464 4.70926,0 -2.40056,-91.79842 0.75245,-91.79842 -16.72803,-0.59903 -38.04747,-0.33956 -52.67122,0.75245 z"
         style="fill:none;stroke:#000000;stroke-width:1px;stroke-linecap:butt;stroke-linejoin:miter;stroke-opacity:1" />
      <g
         transform="translate(0,5.150198)"
         id="g4617">
        <path
           style="fill:none;stroke:#000000;stroke-width:1px;stroke-linecap:butt;stroke-linejoin:miter;stroke-opacity:1"
           d="m 425.13197,978.62248 c -0.13712,1.29212 0.75244,31.69612 0.75244,24.07822"
           id="path4593"
           inkscape:connector-curvature="0" />
        <path
           style="fill:none;stroke:#000000;stroke-width:1px;stroke-linecap:butt;stroke-linejoin:miter;stroke-opacity:1"
           d="m 428.8942,1001.1959 c 0,0.5016 -0.50163,1.5048 0,1.5048 0.72494,0 2.53767,-18.83823 2.25734,-21.06844 22.42466,-4.54531 2.78575,22.12534 -1.5049,13.54403 -0.57194,-1.14389 2.54895,0.34802 3.76223,0.75245 5.1567,1.71889 9.7818,7.64676 9.7818,10.53426"
           id="path4615"
           inkscape:connector-curvature="0" />
      </g>
    </g>
    <g
       id="g5249">
      <path
         sodipodi:nodetypes="sssscs"
         inkscape:connector-curvature="0"
         id="path4525"
         d="m 13.544027,813.83681 c 1.064091,2.96949 18.112216,0 21.820933,0 4.796579,0 29.829031,5.53593 33.107622,2.25734 7.011697,-7.0117 9.287738,-87.18452 3.009785,-91.04596 -5.864422,-3.60708 -40.638811,-4.99106 -57.562117,-1.12866 2.583655,8.68697 -4.1581269,79.36337 -0.376223,89.91728 z"
         style="fill:none;stroke:#000000;stroke-width:1px;stroke-linecap:butt;stroke-linejoin:miter;stroke-opacity:1" />
      <g
         transform="translate(0,-4.721156)"
         id="g4681">
        <path
           style="fill:none;stroke:#000000;stroke-width:1px;stroke-linecap:butt;stroke-linejoin:miter;stroke-opacity:1"
           d="m 31.573379,787.5012 0.752446,3.00979"
           id="path4531"
           inkscape:connector-curvature="0" />
        <path
           style="fill:none;stroke:#000000;stroke-width:1px;stroke-linecap:butt;stroke-linejoin:miter;stroke-opacity:1"
           d="m 41.355176,774.70962 c -27.27101,-2.88086 21.445579,15.80137 -9.781797,15.80137"
           id="path4533"
           inkscape:connector-curvature="0" />
        <path
           style="fill:none;stroke:#000000;stroke-width:1px;stroke-linecap:butt;stroke-linejoin:miter;stroke-opacity:1"
           d="m 43.612514,775.46207 c 0,8.77854 0,17.55707 0,26.33561 0,3.76408 0,-5.67236 0,-6.77202 0,-2.45681 -0.696122,-18.34538 0,-19.56359 1.113019,-1.94778 4.013045,-2.00652 6.019568,-3.00978 8.395325,-4.19767 10.855764,7.95538 6.019568,12.79158 -0.755327,0.75532 -20.296772,4.50504 -11.28669,0"
           id="path4537"
           inkscape:connector-curvature="0" />
        <path
           style="fill:none;stroke:#000000;stroke-width:1px;stroke-linecap:butt;stroke-linejoin:miter;stroke-opacity:1"
           d="m 60.166325,758.90826 c 2.605015,7.0099 2.226699,16.707 0.752446,24.07827 -0.77867,3.89335 -2.85023,7.36491 -2.257338,6.77201 0.710964,-0.71096 1.800181,-2.84791 2.257338,-3.76223"
           id="path4539"
           inkscape:connector-curvature="0" />
        <path
           style="fill:none;stroke:#000000;stroke-width:1px;stroke-linecap:butt;stroke-linejoin:miter;stroke-opacity:1"
           d="m 23.325825,788.25365 c -4.013045,2.00653 -4.013045,2.00653 0,0 z"
           id="path4675"
           inkscape:connector-curvature="0" />
      </g>
    </g>
    <g
       id="g4779">
      <path
         inkscape:connector-curvature="0"
         id="path4710"
         d="m 157.26121,996.68118 c 26.94477,-1.03197 65.37064,1.00931 86.51171,-0.75244"
         style="fill:none;stroke:#000000;stroke-width:1px;stroke-linecap:butt;stroke-linejoin:miter;stroke-opacity:1"
         sodipodi:nodetypes="cc" />
      <path
         sodipodi:nodetypes="ccc"
         inkscape:connector-curvature="0"
         id="path4712"
         d="m 232.60401,988.37593 c 4.71472,5.38678 11.34365,7.49611 11.34365,7.49611 0,0 -10.53127,7.53646 -12.96632,9.08606"
         style="fill:none;stroke:#000000;stroke-width:1px;stroke-linecap:butt;stroke-linejoin:miter;stroke-opacity:1" />
    </g>
    <g
       id="g4783">
      <path
         inkscape:connector-curvature="0"
         id="path4716"
         d="m 315.27486,995.92874 c 26.77465,-0.76056 59.19701,-1.0443 79.00682,2.25733"
         style="fill:none;stroke:#000000;stroke-width:1px;stroke-linecap:butt;stroke-linejoin:miter;stroke-opacity:1" />
      <path
         sodipodi:nodetypes="ccc"
         inkscape:connector-curvature="0"
         id="path4718"
         d="m 382.99499,986.89938 c 6.56814,7.46873 12.65047,11.8709 12.65047,11.8709 0,0 -10.93092,2.50782 -14.66132,9.00302"
         style="fill:none;stroke:#000000;stroke-width:1px;stroke-linecap:butt;stroke-linejoin:miter;stroke-opacity:1" />
    </g>
    <g
       id="g4787">
      <path
         inkscape:connector-curvature="0"
         id="path4720"
         d="m 474.04096,992.91895 c 29.772,-6.8358 63.65403,-41.32484 73.7397,-52.67122"
         style="fill:none;stroke:#000000;stroke-width:1px;stroke-linecap:butt;stroke-linejoin:miter;stroke-opacity:1" />
      <path
         sodipodi:nodetypes="ccc"
         inkscape:connector-curvature="0"
         id="path4722"
         d="m 532.73174,937.9904 c 7.87096,-0.38893 15.96355,1.3194 15.96355,1.3194 0,0 -1.06651,5.74557 -4.67686,15.84414"
         style="fill:none;stroke:#000000;stroke-width:1px;stroke-linecap:butt;stroke-linejoin:miter;stroke-opacity:1" />
    </g>
    <g
       id="g4791">
      <path
         inkscape:connector-curvature="0"
         id="path4724"
         d="m 474.04096,1001.1959 c 30.51272,9.9021 64.33793,41.4543 82.76905,48.1565"
         style="fill:none;stroke:#000000;stroke-width:1px;stroke-linecap:butt;stroke-linejoin:miter;stroke-opacity:1" />
      <path
         sodipodi:nodetypes="ccc"
         inkscape:connector-curvature="0"
         id="path4726"
         d="m 548.11796,1034.9521 c 2.74071,6.2553 9.85862,15.7236 9.85862,15.7236 0,0 -11.26013,-1.5114 -16.31928,-1.933"
         style="fill:none;stroke:#000000;stroke-width:1px;stroke-linecap:butt;stroke-linejoin:miter;stroke-opacity:1" />
    </g>
    <g
       id="g4775">
      <path
         sodipodi:nodetypes="cssc"
         inkscape:connector-curvature="0"
         id="path4728"
         d="m 674.19158,831.14307 c -25.62372,42.13251 -135.75046,23.49993 -215.19954,27.08805 -124.66131,5.63001 -311.2964,2.80963 -373.2132,29.3454 -59.936327,25.68699 -52.960832,73.85535 -9.029352,97.81797"
         style="fill:none;stroke:#000000;stroke-width:1px;stroke-linecap:butt;stroke-linejoin:miter;stroke-opacity:1" />
      <path
         sodipodi:nodetypes="ccc"
         inkscape:connector-curvature="0"
         id="path4730"
         d="m 65.813076,969.84068 c 8.703821,8.83358 11.331997,15.84729 11.331997,15.84729 0,0 -12.580681,-0.18243 -19.816475,3.10657"
         style="fill:none;stroke:#000000;stroke-width:1px;stroke-linecap:butt;stroke-linejoin:miter;stroke-opacity:1" />
    </g>
    <g
       id="g4759">
      <path
         inkscape:connector-curvature="0"
         id="path4690"
         d="m 79.006826,781.48164 c 23.193184,5.18044 53.284254,5.26712 74.492154,5.26712"
         style="fill:none;stroke:#000000;stroke-width:1px;stroke-linecap:butt;stroke-linejoin:miter;stroke-opacity:1" />
      <path
         sodipodi:nodetypes="csc"
         inkscape:connector-curvature="0"
         id="path4732"
         d="m 142.78098,775.68049 c 0.1904,5.39756 17.0591,11.1182 10.05424,12.86942 -3.7011,0.92527 -9.12635,5.10465 -10.05424,6.03254"
         style="fill:none;stroke:#000000;stroke-width:1px;stroke-linecap:butt;stroke-linejoin:miter;stroke-opacity:1" />
    </g>
    <g
       id="g4763">
      <path
         inkscape:connector-curvature="0"
         id="path4694"
         d="m 237.77292,783.73897 c 23.55286,0.46137 52.13762,3.17966 72.23482,1.5049"
         style="fill:none;stroke:#000000;stroke-width:1px;stroke-linecap:butt;stroke-linejoin:miter;stroke-opacity:1" />
      <path
         sodipodi:nodetypes="cssc"
         inkscape:connector-curvature="0"
         id="path4734"
         d="m 297.40969,775.07181 c 2.69111,2.82937 5.76255,5.32734 8.84773,7.64122 0.75845,0.56884 4.82603,2.03187 4.82603,2.41301 0,0.36082 -10.82216,4.64344 -13.67376,8.44557"
         style="fill:none;stroke:#000000;stroke-width:1px;stroke-linecap:butt;stroke-linejoin:miter;stroke-opacity:1" />
    </g>
    <g
       id="g4767">
      <path
         sodipodi:nodetypes="cc"
         inkscape:connector-curvature="0"
         id="path4698"
         d="m 395.03413,779.97674 c 20.24006,6.90276 44.60391,0.49796 73.99916,3.11358"
         style="fill:none;stroke:#000000;stroke-width:1px;stroke-linecap:butt;stroke-linejoin:miter;stroke-opacity:1" />
      <path
         inkscape:connector-curvature="0"
         id="path4736"
         d="m 454.45141,772.85445 c -1.99225,3.70176 14.76473,10.16978 14.4781,10.45641 -0.82376,0.82376 -4.57008,0.914 -6.03254,2.01085 -2.61819,1.96364 -5.11616,4.16676 -8.04339,5.63037"
         style="fill:none;stroke:#000000;stroke-width:1px;stroke-linecap:butt;stroke-linejoin:miter;stroke-opacity:1" />
    </g>
    <g
       id="g5112">
      <path
         sodipodi:nodetypes="cc"
         inkscape:connector-curvature="0"
         id="path4702"
         d="m 552.038,781.48164 c 25.96759,3.18122 61.94693,-1.534 84.93044,2.29659"
         style="fill:none;stroke:#000000;stroke-width:1px;stroke-linecap:butt;stroke-linejoin:miter;stroke-opacity:1" />
      <path
         sodipodi:nodetypes="csc"
         inkscape:connector-curvature="0"
         id="path4738"
         d="m 622.29748,775.06097 c 7.14834,3.62213 15.38084,5.99973 15.28243,8.44555 -0.12327,3.06388 -8.48091,1.64402 -12.86942,5.63037"
         style="fill:none;stroke:#000000;stroke-width:1px;stroke-linecap:butt;stroke-linejoin:miter;stroke-opacity:1" />
    </g>
    <g
       id="g5080"
       transform="translate(3,0)">
      <path
         transform="translate(9.8631078,710.50905)"
         inkscape:connector-curvature="0"
         id="path4872"
         d="m 79.434376,52.414801 c -0.514944,3.885816 -0.321356,8.054354 0.527803,11.875571 0.01854,0.08344 0.576812,3.430721 0.527804,3.430721 -0.0055,0 0.0079,-2.056213 0,-2.111213 -0.194034,-1.358235 -0.62159,-2.920375 -1.055607,-4.222425 -0.744817,-2.234453 -4.178342,-11.424764 -0.263901,-12.403375 1.174913,-0.293728 3.113994,-0.105575 4.222425,0.263902 1.891458,0.630486 2.670691,1.630923 3.694622,3.166819 2.481145,3.721716 -4.875195,7.79208 -7.125343,5.541933"
         style="fill:none;stroke:#000000;stroke-width:1px;stroke-linecap:butt;stroke-linejoin:miter;stroke-opacity:1" />
      <path
         transform="translate(9.8631078,710.50905)"
         inkscape:connector-curvature="0"
         id="path4874"
         d="m 89.462636,62.179159 c -3.226457,-1.53618 -7.558697,5.278032 -2.639015,5.278032 0.852068,0 1.663558,-0.573418 2.111212,-1.319508 0.199493,-0.332487 0.791705,-1.725676 0.791705,-2.111213 0,-0.622022 -0.820255,-1.569134 -0.263902,-1.847311 0.628246,-0.314123 4.750229,8.761742 4.750229,6.069737"
         style="fill:none;stroke:#000000;stroke-width:1px;stroke-linecap:butt;stroke-linejoin:miter;stroke-opacity:1" />
      <path
         transform="translate(9.8631078,710.50905)"
         inkscape:connector-curvature="0"
         id="path4876"
         d="m 93.948963,61.387455 c 0.563705,1.078627 0.613855,1.83582 0.791705,2.902917 1.096255,6.577529 0.169721,0.04709 4.486327,-2.111213 0.661698,-0.330849 1.443225,-0.404088 1.847315,0"
         style="fill:none;stroke:#000000;stroke-width:1px;stroke-linecap:butt;stroke-linejoin:miter;stroke-opacity:1" />
      <path
         transform="translate(9.8631078,710.50905)"
         inkscape:connector-curvature="0"
         id="path4878"
         d="m 107.14404,60.859652 c -1.19778,0.0061 -1.75221,0.787428 -2.63901,1.319507 -0.73692,0.442152 -2.05889,0.739377 -2.63902,1.319508 -1.01308,1.013079 7.04891,1.923749 5.27803,3.694622 -0.90319,0.903191 -3.58016,0.888455 -4.75023,1.055607 -0.57322,0.08189 -1.26211,0 -1.84731,0 -0.17593,0 -0.703735,0 -0.5278,0 0.17593,0 0.35187,0 0.5278,0"
         style="fill:none;stroke:#000000;stroke-width:1px;stroke-linecap:butt;stroke-linejoin:miter;stroke-opacity:1" />
      <path
         transform="translate(9.8631078,710.50905)"
         inkscape:connector-curvature="0"
         id="path4880"
         d="m 109.78306,62.970864 c -0.72179,0.821707 0.7917,8.026507 0.7917,3.958524"
         style="fill:none;stroke:#000000;stroke-width:1px;stroke-linecap:butt;stroke-linejoin:miter;stroke-opacity:1" />
      <path
         inkscape:connector-curvature="0"
         id="path4882"
         d="m 119.11837,769.41018 c 1.61399,0.6456 0.92535,0.26503 2.11121,1.0556"
         style="fill:none;stroke:#000000;stroke-width:1px;stroke-linecap:butt;stroke-linejoin:miter;stroke-opacity:1" />
      <path
         transform="translate(9.8631078,710.50905)"
         inkscape:connector-curvature="0"
         id="path4884"
         d="m 112.68598,63.498667 c -0.45474,1.103455 -0.24464,1.660467 0,2.639016 1.18299,4.73197 0.43866,-1.011038 3.69462,-2.639016 0.12902,-0.06451 0.544,-0.511606 0.7917,-0.263901 1.14511,1.145108 -1.5e-4,4.750228 0.52781,4.750228 0.17357,0 0.40988,-0.673785 0.5278,-0.791705"
         style="fill:none;stroke:#000000;stroke-width:1px;stroke-linecap:butt;stroke-linejoin:miter;stroke-opacity:1" />
      <path
         transform="translate(9.8631078,710.50905)"
         inkscape:connector-curvature="0"
         id="path4886"
         d="m 123.24204,63.234766 c -2.10678,-1.228943 -4.43765,4.23216 -1.84731,4.750228 3.16501,0.633002 4.25068,-4.985877 3.43072,-5.805835 -0.44855,-0.448546 -1.51336,0.425146 -1.58341,1.055607 -0.0622,0.55982 0.82684,0.80479 1.05561,1.319508 0.59068,1.32905 -0.16282,3.812738 0,5.278031 0.23685,2.131684 2.46473,8.66394 -0.26391,10.02826 -3.20549,1.602747 -4.30372,-5.034126 -3.69462,-6.861441 0.7537,-2.26111 3.9309,-3.069644 5.80584,-3.694622"
         style="fill:none;stroke:#000000;stroke-width:1px;stroke-linecap:butt;stroke-linejoin:miter;stroke-opacity:1" />
    </g>
    <g
       id="g5090">
      <path
         transform="translate(9.8631078,710.50905)"
         inkscape:connector-curvature="0"
         id="path4888"
         d="m 247.80359,54.526014 c -1.18779,-0.973862 -1.78723,-0.791705 -3.16682,-0.791705 -1.53152,0 -2.40201,0.543936 -3.69463,1.319508 -4.3783,2.626981 4.48633,6.315139 4.48633,9.500457 0,0.520871 -10.43797,2.784822 -7.91705,0.263901"
         style="fill:none;stroke:#000000;stroke-width:1px;stroke-linecap:butt;stroke-linejoin:miter;stroke-opacity:1" />
      <path
         transform="translate(9.8631078,710.50905)"
         inkscape:connector-curvature="0"
         id="path4890"
         d="m 251.23431,61.387455 c -1.2103,-1.462259 -5.38623,3.322521 -4.48633,4.222425 1.18289,1.182893 5.50372,0.414957 6.86144,-0.263902"
         style="fill:none;stroke:#000000;stroke-width:1px;stroke-linecap:butt;stroke-linejoin:miter;stroke-opacity:1" />
      <path
         transform="translate(9.8631078,710.50905)"
         inkscape:connector-curvature="0"
         id="path4892"
         d="m 255.19283,62.443061 c -4.02105,0.923609 -1.42262,5.346775 1.84731,3.166819 2.10126,-1.400839 0.48891,-3.634064 -1.84731,-3.166819 z"
         style="fill:none;stroke:#000000;stroke-width:1px;stroke-linecap:butt;stroke-linejoin:miter;stroke-opacity:1" />
      <path
         transform="translate(9.8631078,710.50905)"
         inkscape:connector-curvature="0"
         id="path4894"
         d="m 259.41526,62.179159 c -0.17603,3.041121 0.10375,6.004315 0.5278,8.972654 0.0819,0.573226 0,1.262116 0,1.847311 0,0.175935 0,0.703738 0,0.527803 0,-1.870013 0.49468,-8.725832 0.2639,-9.764358 -0.12801,-0.57605 -1.01086,-1.035514 -0.7917,-1.58341 0.16658,-0.416465 0.87096,0.263902 1.3195,0.263902 1.12037,0 2.18304,-1.367944 2.90292,0.791705 0.82506,2.475167 -2.677,4.674267 -3.69462,2.639016"
         style="fill:none;stroke:#000000;stroke-width:1px;stroke-linecap:butt;stroke-linejoin:miter;stroke-opacity:1" />
      <path
         inkscape:connector-curvature="0"
         id="path4896"
         d="m 276.45931,773.74382 c 0.14713,1.02952 -1.92941,6.49784 -0.2639,3.16682"
         style="fill:none;stroke:#000000;stroke-width:1px;stroke-linecap:butt;stroke-linejoin:miter;stroke-opacity:1" />
      <path
         inkscape:connector-curvature="0"
         id="path4898"
         d="m 276.45931,770.04919 c 0.35187,0.17594 0.70374,0.35187 0,0 z"
         style="fill:none;stroke:#000000;stroke-width:1px;stroke-linecap:butt;stroke-linejoin:miter;stroke-opacity:1" />
      <path
         inkscape:connector-curvature="0"
         id="path4900"
         d="m 278.83443,775.06332 c -0.29841,1.49203 -0.2639,0.87097 -0.2639,1.84732 0,0.43983 0.43983,1.3195 0,1.3195 -0.55636,0 0.5278,-1.02705 0.5278,-1.58341 0,-0.53508 -0.56071,-1.13819 -0.2639,-1.58341 0.24398,-0.36596 0.88565,0.0723 1.31951,0 0.36369,-0.0606 1.20164,-1.43736 1.84731,-0.7917 0.9443,0.9443 -0.62766,4.58618 0.7917,3.16682"
         style="fill:none;stroke:#000000;stroke-width:1px;stroke-linecap:butt;stroke-linejoin:miter;stroke-opacity:1" />
      <path
         inkscape:connector-curvature="0"
         id="path4902"
         d="m 286.75148,774.53552 c -4.8418,1.81515 -1.8005,6.27122 0.5278,3.16682 0.67687,-0.90249 0.7917,-1.82943 0.7917,-2.90292 0,-0.43983 0,-1.75934 0,-1.31951 0,1.93528 0,3.87056 0,5.80584 0,1.235 0.83487,6.70791 -0.5278,7.38924 -2.32032,1.16016 -4.80465,-1.73846 -3.69462,-3.95852 0.79031,-1.58063 3.70684,-3.17089 5.27803,-3.69462"
         style="fill:none;stroke:#000000;stroke-width:1px;stroke-linecap:butt;stroke-linejoin:miter;stroke-opacity:1" />
    </g>
    <g
       id="g5100"
       transform="translate(4,-1)">
      <path
         inkscape:connector-curvature="0"
         id="path4904"
         d="m 406.45158,763.71556 c 0,0.55878 0,16.32189 0,10.55606"
         style="fill:none;stroke:#000000;stroke-width:1px;stroke-linecap:butt;stroke-linejoin:miter;stroke-opacity:1" />
      <path
         inkscape:connector-curvature="0"
         id="path4906"
         d="m 399.59014,762.39605 c 1.57829,0.31566 0.87096,0.2639 2.11121,0.2639 2.53764,0 4.8871,-0.51369 7.38925,-0.7917 2.81593,-0.31289 4.39509,1.00999 3.43072,0.5278"
         style="fill:none;stroke:#000000;stroke-width:1px;stroke-linecap:butt;stroke-linejoin:miter;stroke-opacity:1" />
      <path
         inkscape:connector-curvature="0"
         id="path4908"
         d="m 411.72961,770.3131 c -0.59314,1.48285 -0.5278,0.84579 -0.5278,1.84731 0,1.32029 -0.5207,2.63901 1.05561,2.63901 0.35187,0 0.76283,0.19518 1.0556,0 0.57312,-0.38207 1.50873,-1.43404 1.84731,-2.11121 0.2006,-0.40119 -0.18464,-1.31951 0.26391,-1.31951 0.27255,0 1.73234,10.37317 1.3195,11.61167 -0.32317,0.96951 -6.06973,0.4578 -6.06973,-3.43072"
         style="fill:none;stroke:#000000;stroke-width:1px;stroke-linecap:butt;stroke-linejoin:miter;stroke-opacity:1" />
      <path
         inkscape:connector-curvature="0"
         id="path4910"
         d="m 419.11886,772.95211 c -0.009,3.1e-4 0.007,9.23656 0,9.23656 -0.41265,0 -1.23564,-6.63026 -1.05561,-7.12535 0.26889,-0.73943 1.05561,-1.32441 1.05561,-2.11121 0,-3.83007 -1.71905,0.007 -0.79171,-1.84731 2.56927,-5.13854 9.51176,4.75023 2.90292,4.75023 -1.06646,0 -1.49276,0.0906 -2.11121,-0.5278"
         style="fill:none;stroke:#000000;stroke-width:1px;stroke-linecap:butt;stroke-linejoin:miter;stroke-opacity:1" />
      <path
         inkscape:connector-curvature="0"
         id="path4912"
         d="m 426.88322,770.68821 c 0.008,0.43848 -0.52781,7.55565 -0.52781,4.48633"
         style="fill:none;stroke:#000000;stroke-width:1px;stroke-linecap:butt;stroke-linejoin:miter;stroke-opacity:1" />
      <path
         inkscape:connector-curvature="0"
         id="path4914"
         d="m 425.82761,765.14628 c 0.43984,0.2639 0.87967,0.5278 1.31951,0.7917"
         style="fill:none;stroke:#000000;stroke-width:1px;stroke-linecap:butt;stroke-linejoin:miter;stroke-opacity:1" />
      <path
         transform="translate(9.8631078,710.50905)"
         inkscape:connector-curvature="0"
         id="path4916"
         d="m 420.13132,61.123553 c 0.20541,0.880774 -0.10728,1.592015 -0.2639,2.375114 -1.41035,7.051761 2.73651,-4.124931 3.95852,-2.902917 0.62184,0.621838 -1.08501,6.392449 0,4.222425"
         style="fill:none;stroke:#000000;stroke-width:1px;stroke-linecap:butt;stroke-linejoin:miter;stroke-opacity:1" />
      <path
         transform="translate(9.8631078,710.50905)"
         inkscape:connector-curvature="0"
         id="path4918"
         d="m 428.57617,61.387455 c -1.86929,-1.750887 -3.56535,5.342667 -3.16682,5.541933 1.34685,0.673422 3.83036,-2.872639 3.69462,-3.958524 -0.069,-0.552057 -0.27899,-2.081027 -0.5278,-1.583409 -0.31717,0.63434 0.20951,1.404087 0.2639,2.111212 0.14796,1.923454 -0.16019,3.883497 0,5.805835 0.15488,1.858538 2.30193,8.933474 0.2639,10.292162 -2.81429,1.876195 -4.8475,-2.847091 -4.48632,-5.01413 0.5506,-3.303649 4.75153,-4.225042 6.06973,-6.861441"
         style="fill:none;stroke:#000000;stroke-width:1px;stroke-linecap:butt;stroke-linejoin:miter;stroke-opacity:1" />
    </g>
    <g
       id="g5208">
      <path
         inkscape:connector-curvature="0"
         id="path4920"
         d="m 560.09791,764.14628 c 0,-0.35187 -0.35187,-1.05561 0,-1.05561 0.35187,0 0,1.40748 0,1.05561 0,-4.70213 -0.0518,8.24272 0,8.70875 0.0764,0.68763 0.0501,1.99775 0.2639,2.63901 0.0622,0.18661 0.4606,0.52781 0.2639,0.52781 -0.17049,0 0.19025,-2.22781 0.2639,-2.37512"
         style="fill:none;stroke:#000000;stroke-width:1px;stroke-linecap:butt;stroke-linejoin:miter;stroke-opacity:1" />
      <path
         inkscape:connector-curvature="0"
         id="path4922"
         d="m 554.81988,764.67408 c 1.74784,-2.29611 8.36174,-2.52784 11.08386,-1.84731 0.81322,0.2033 1.37568,1.26333 1.84731,0.7917"
         style="fill:none;stroke:#000000;stroke-width:1px;stroke-linecap:butt;stroke-linejoin:miter;stroke-opacity:1" />
      <path
         inkscape:connector-curvature="0"
         id="path4924"
         d="m 566.16765,773.38283 c 0.56072,0.10715 4.26516,-1.80457 3.16681,-2.90292 -2.83013,-2.83013 -6.75648,2.68999 -5.80583,5.54194 0.28016,0.84047 4.07838,0.79654 4.75023,0.5278 1.16765,-0.46706 2.64082,-1.84972 3.43072,-2.90292 1.13481,-1.51308 1.83721,-3.18702 1.84731,-3.16682 0.36353,0.72706 -0.41897,5.54194 -0.5278,5.54194 -0.0582,0 0.75781,-1.25174 0.7917,-1.31951 0.15792,-0.31585 1.49991,-3.25032 2.11121,-2.63902 0.35822,0.35822 -0.37408,3.80481 0.26391,3.16682 0.5633,-0.5633 3.52592,-5.44673 4.22242,-4.75023 0.92366,0.92366 -0.65975,4.35438 0.2639,5.27804"
         style="fill:none;stroke:#000000;stroke-width:1px;stroke-linecap:butt;stroke-linejoin:miter;stroke-opacity:1" />
      <path
         inkscape:connector-curvature="0"
         id="path4926"
         d="m 583.32125,770.21601 c 0.19747,1.45286 -0.2639,2.80195 -0.2639,4.22243 0,1.39012 -0.0702,2.60256 -0.26391,3.95852 -0.0191,0.13353 0.0126,2.90292 0,2.90292 -0.61577,0 0,-1.23154 0,-1.84731 0,-1.276 -0.18004,-2.69822 0,-3.95853 0.1609,-1.12626 1.16975,-2.55323 1.05561,-3.69462 -0.0554,-0.55359 -0.74696,-1.07204 -0.5278,-1.58341 0.17669,-0.41228 0.89398,-0.12206 1.31951,-0.2639 0.38676,-0.12892 0.59465,-0.63805 1.0556,-0.7917 1.99161,-0.66387 3.34397,2.76914 2.37512,4.22242 -0.86989,1.30484 -3.91632,1.20866 -4.75023,0.79171"
         style="fill:none;stroke:#000000;stroke-width:1px;stroke-linecap:butt;stroke-linejoin:miter;stroke-opacity:1" />
      <path
         inkscape:connector-curvature="0"
         id="path4928"
         d="m 591.35854,763.22156 c 0.2878,0.61727 -1.3195,15.67613 -1.3195,10.55606"
         style="fill:none;stroke:#000000;stroke-width:1px;stroke-linecap:butt;stroke-linejoin:miter;stroke-opacity:1" />
      <path
         inkscape:connector-curvature="0"
         id="path4930"
         d="m 597.30803,769.68821 c -1.85809,-0.82605 -6.94587,3.80546 -4.22242,4.48633 0.82163,0.20541 1.51519,0.51595 2.37511,0 2.49012,-1.49407 1.39879,-5.27803 3.16682,-5.27803 0.61723,0 -1.42802,7.24947 1.31951,6.33363 1.96142,-0.65381 3.5606,-5.50532 4.48632,-7.12534 0.97139,-1.69993 1.31951,-3.07031 1.31951,-2.90292 0,2.77814 -1.39184,5.44812 -1.84731,8.18095 0,2.01321 0.11802,-0.20818 -0.2639,1.31951 -0.064,0.25602 0.2639,0.7917 0,0.7917 -0.24484,0 0.50972,-1.54723 0.5278,-1.58341"
         style="fill:none;stroke:#000000;stroke-width:1px;stroke-linecap:butt;stroke-linejoin:miter;stroke-opacity:1" />
      <path
         inkscape:connector-curvature="0"
         id="path4932"
         d="m 601.00265,766.78529 c 2.13654,0.28355 5.26252,-0.80722 6.86145,0.79171"
         style="fill:none;stroke:#000000;stroke-width:1px;stroke-linecap:butt;stroke-linejoin:miter;stroke-opacity:1" />
      <path
         sodipodi:nodetypes="cc"
         inkscape:connector-curvature="0"
         id="path4934"
         d="m 607.8641,771.27162 c 0.28089,0.98735 -0.42498,4.58916 0.26389,5.27803"
         style="fill:none;stroke:#000000;stroke-width:1px;stroke-linecap:butt;stroke-linejoin:miter;stroke-opacity:1" />
      <path
         inkscape:connector-curvature="0"
         id="path4936"
         d="m 608.3919,768.6326 c 0.35187,-1.40747 0.35187,-1.40747 0,0 z"
         style="fill:none;stroke:#000000;stroke-width:1px;stroke-linecap:butt;stroke-linejoin:miter;stroke-opacity:1" />
      <path
         inkscape:connector-curvature="0"
         id="path4938"
         d="m 610.76701,769.42431 c -0.017,2.12105 0.1416,4.30613 -0.2639,6.33364 -0.10351,0.51755 0,2.11121 0,1.58341 0,-1.42715 2.21383,-5.48328 2.90292,-6.86145 0.25804,-0.51608 0.2639,3.61158 0.2639,4.48633 0,0.43984 -0.31101,1.63052 0,1.31951 0.55634,-0.55634 4.60917,-5.64657 4.75023,-6.06974 0.088,-0.2639 -0.0143,-0.7917 0.2639,-0.7917 0.66994,0 -0.44702,1.27284 -0.7917,1.84731 -0.30651,0.51084 -1.95576,4.90568 -1.58341,5.27803 1.66409,1.6641 5.54853,-8.44815 3.95852,-7.65314 -0.98051,0.49025 -1.58787,14.02244 -1.84731,16.09799 -0.31023,2.48179 -2.1718,4.22243 -4.48633,4.22243 -0.17593,0 -0.44912,0.15736 -0.5278,0 -1.80332,-3.60665 1.90153,-8.47197 5.01413,-10.02826"
         style="fill:none;stroke:#000000;stroke-width:1px;stroke-linecap:butt;stroke-linejoin:miter;stroke-opacity:1" />
    </g>
    <g
       id="g5128"
       transform="translate(40.601504,17.293233)">
      <path
         sodipodi:nodetypes="cc"
         transform="translate(9.8631078,710.50905)"
         inkscape:connector-curvature="0"
         id="path4940"
         d="m 264.16549,140.03013 c 0.38126,1.04365 0.7917,14.92276 0.7917,8.18095"
         style="fill:none;stroke:#000000;stroke-width:1px;stroke-linecap:butt;stroke-linejoin:miter;stroke-opacity:1" />
      <path
         transform="translate(9.8631078,710.50905)"
         inkscape:connector-curvature="0"
         id="path4942"
         d="m 257.83185,141.34963 c 4.34121,-0.35814 8.95453,-2.90291 13.19507,-2.90291"
         style="fill:none;stroke:#000000;stroke-width:1px;stroke-linecap:butt;stroke-linejoin:miter;stroke-opacity:1" />
      <path
         transform="translate(9.8631078,710.50905)"
         inkscape:connector-curvature="0"
         id="path4944"
         d="m 268.65181,144.51645 c 0,0.52781 0,1.05561 0,1.58341 0,0.80053 -0.25594,2.13511 0,2.90292 0.088,0.2639 0.54208,0.7917 0.2639,0.7917 -0.69532,0 0.96584,-4.83729 2.37512,-5.54193 0.98261,-0.4913 1.8034,0.7478 2.37511,1.31951"
         style="fill:none;stroke:#000000;stroke-width:1px;stroke-linecap:butt;stroke-linejoin:miter;stroke-opacity:1" />
      <path
         transform="translate(9.8631078,710.50905)"
         inkscape:connector-curvature="0"
         id="path4946"
         d="m 277.09666,143.72475 c -1.52137,-0.65515 -4.89154,3.88786 -3.16682,4.75023 1.26429,0.63214 3.05864,-0.73106 3.43072,-1.84731 0.0614,-0.18421 0.55296,-1.78443 0.52781,-1.84732 -0.16335,-0.40837 -1.14358,-0.7917 -0.79171,-1.0556 0.84079,-0.63059 0.84286,4.7758 1.31951,5.01413 0.90398,0.45199 5.01413,-5.99965 5.01413,-4.75023 0,0.61078 0.2639,1.17386 0.2639,1.84731 0,5.8348 2.39327,-3.14866 4.22243,-1.31951 0.90644,0.90644 0.34904,2.98806 1.0556,3.69463"
         style="fill:none;stroke:#000000;stroke-width:1px;stroke-linecap:butt;stroke-linejoin:miter;stroke-opacity:1" />
      <path
         transform="translate(9.8631078,710.50905)"
         inkscape:connector-curvature="0"
         id="path4948"
         d="m 295.83367,142.66914 c -0.71105,0.55416 -1.62107,0.60318 -2.37511,1.05561 -1.59228,0.95537 -0.11302,0.18846 -1.31951,0.7917 -4.52518,2.2626 2.20855,1.91655 1.58341,3.16682 -0.45413,0.90827 -6.26771,1.9463 -3.95852,0.79171"
         style="fill:none;stroke:#000000;stroke-width:1px;stroke-linecap:butt;stroke-linejoin:miter;stroke-opacity:1" />
      <path
         transform="translate(9.8631078,710.50905)"
         inkscape:connector-curvature="0"
         id="path4950"
         d="m 296.62538,137.12721 c 0,0.7917 0,1.58341 0,2.37511 0,2.28715 0,4.5743 0,6.86144 0,0.83175 -0.2639,1.62274 -0.2639,2.37512 0,0.17593 0,0.70374 0,0.5278 0,-0.77478 -0.087,-1.40936 0.2639,-2.11121"
         style="fill:none;stroke:#000000;stroke-width:1px;stroke-linecap:butt;stroke-linejoin:miter;stroke-opacity:1" />
      <path
         transform="translate(9.8631078,710.50905)"
         inkscape:connector-curvature="0"
         id="path4952"
         d="m 303.22292,143.98865 c -2.39395,-0.11441 -4.22243,1.2637 -4.22243,3.69462 0,0.17594 -0.15736,0.44912 0,0.52781 1.31262,0.65631 3.50813,-0.36712 4.22243,-1.31951 0.28423,-0.37898 0.58656,-0.84945 0.5278,-1.31951 -0.069,-0.55206 -1.08416,-1.58341 -0.5278,-1.58341 1.74016,0 0.21404,5.30296 2.90292,3.95852 1.82503,-0.91251 3.32049,-4.41953 3.95852,-6.33363 0.088,-0.26391 -0.0143,-0.79171 0.2639,-0.79171 0.35187,0 0,0.70374 0,1.05561 0,1.42923 0.23442,3.07983 0,4.48632 -0.10515,0.63092 -0.2639,0.95286 -0.2639,1.58341 0,0.088 0,0.35187 0,0.26391 0,-0.91966 0.11907,-1.82156 0.5278,-2.63902"
         style="fill:none;stroke:#000000;stroke-width:1px;stroke-linecap:butt;stroke-linejoin:miter;stroke-opacity:1" />
      <path
         transform="translate(9.8631078,710.50905)"
         inkscape:connector-curvature="0"
         id="path4954"
         d="m 307.18144,141.34963 c 1.96724,-0.31973 3.99446,0.26391 5.80584,0.26391"
         style="fill:none;stroke:#000000;stroke-width:1px;stroke-linecap:butt;stroke-linejoin:miter;stroke-opacity:1" />
      <path
         transform="translate(9.8631078,710.50905)"
         inkscape:connector-curvature="0"
         id="path4956"
         d="m 312.98728,145.83596 c 0.86869,0.0143 1.40054,-0.027 2.11121,-0.2639 2.82199,-0.94066 1.09957,-5.87911 -1.31951,-1.84731 -3.23607,5.39345 3.63631,4.41779 6.59754,3.43072"
         style="fill:none;stroke:#000000;stroke-width:1px;stroke-linecap:butt;stroke-linejoin:miter;stroke-opacity:1" />
      <path
         transform="translate(9.8631078,710.50905)"
         inkscape:connector-curvature="0"
         id="path4958"
         d="m 328.82137,141.08573 c 0.37951,-3.50387 0.5278,5.10094 0.5278,6.59754"
         style="fill:none;stroke:#000000;stroke-width:1px;stroke-linecap:butt;stroke-linejoin:miter;stroke-opacity:1" />
      <path
         transform="translate(9.8631078,710.50905)"
         inkscape:connector-curvature="0"
         id="path4960"
         d="m 325.65455,143.72475 c 2.09837,-0.60961 4.14224,-1.05561 6.33364,-1.05561 0.97353,0.2574 -1.0774,3.81568 -0.2639,4.22243 1.50005,0.75002 3.34112,-0.69722 3.69462,-2.11122 0.49246,-1.96981 -1.65199,-4.01666 -2.37511,-1.84731"
         style="fill:none;stroke:#000000;stroke-width:1px;stroke-linecap:butt;stroke-linejoin:miter;stroke-opacity:1" />
      <path
         inkscape:connector-curvature="0"
         id="path4962"
         d="m 353.08786,847.90016 c 0.22065,0.83627 0.7917,12.85219 0.7917,7.12534"
         style="fill:none;stroke:#000000;stroke-width:1px;stroke-linecap:butt;stroke-linejoin:miter;stroke-opacity:1" />
      <path
         inkscape:connector-curvature="0"
         id="path4964"
         d="m 356.83808,847.90016 c 0,1.14357 0,2.28715 0,3.43072 0,10.25756 -1.35188,-1.49946 0,-3.43072 0.69643,-0.9949 3.09302,-2.25882 3.95853,-0.5278 1.21118,2.42235 -2.44121,3.49681 -3.69462,4.75023 -1.25424,1.25423 3.79223,4.15374 4.22242,5.01413"
         style="fill:none;stroke:#000000;stroke-width:1px;stroke-linecap:butt;stroke-linejoin:miter;stroke-opacity:1" />
    </g>
    <g
       id="g5143"
       transform="translate(-4.2497715,0.26390158)">
      <path
         transform="translate(9.8631078,710.50905)"
         inkscape:connector-curvature="0"
         id="path4966"
         d="m 161.77167,268.5502 c -4.03488,-1.58449 -9.31229,5.65437 -7.65315,8.97265 0.89723,1.79445 10.6234,1.68169 12.40338,0.79171"
         style="fill:none;stroke:#000000;stroke-width:1px;stroke-linecap:butt;stroke-linejoin:miter;stroke-opacity:1" />
      <path
         transform="translate(9.8631078,710.50905)"
         inkscape:connector-curvature="0"
         id="path4968"
         d="m 168.10531,274.09213 c -1.28125,-1.12025 -5.66193,2.51902 -4.48633,3.69462 1.36911,1.36911 4.27487,1.05646 5.01413,-0.7917 0.34424,-0.8606 0.42843,-2.17637 0.79171,-2.90292 0.088,-0.17593 0.2639,-0.7245 0.2639,-0.5278 0,0.2639 0,0.5278 0,0.7917 0,0.63761 0.75919,3.97478 1.84731,3.43072 0.59781,-0.2989 2.2952,-4.03844 2.37511,-3.95852 0.599,0.599 0.2639,2.68408 0.2639,3.43072 0,0.5278 0.52781,1.58341 0,1.58341 -0.31717,0 0.35187,-0.5278 0.52781,-0.79171 0.62952,-0.94428 1.35784,-2.65818 2.37511,-3.16682 1.97273,-0.98636 1.07653,2.92385 1.58341,3.43073"
         style="fill:none;stroke:#000000;stroke-width:1px;stroke-linecap:butt;stroke-linejoin:miter;stroke-opacity:1" />
      <path
         transform="translate(9.8631078,710.50905)"
         inkscape:connector-curvature="0"
         id="path4970"
         d="m 181.56429,275.41164 c -0.80783,0.91231 -1.00695,1.17354 -1.31951,2.11121 -0.6499,1.9497 3.07276,0.93279 3.69462,0 1.54676,-2.32013 -0.36525,-5.46098 -2.37511,-2.11121 z"
         style="fill:none;stroke:#000000;stroke-width:1px;stroke-linecap:butt;stroke-linejoin:miter;stroke-opacity:1" />
      <path
         transform="translate(9.8631078,710.50905)"
         inkscape:connector-curvature="0"
         id="path4972"
         d="m 187.37012,274.61993 c 0.12373,0.60601 -0.87793,3.6084 -0.2639,4.22243 0.80338,0.80338 3.71789,-5.49541 4.22243,-4.48633 0.64111,1.28223 -0.66045,3.82588 0.2639,4.75023"
         style="fill:none;stroke:#000000;stroke-width:1px;stroke-linecap:butt;stroke-linejoin:miter;stroke-opacity:1" />
      <path
         inkscape:connector-curvature="0"
         id="path4974"
         d="m 204.15028,986.71239 c -0.37203,0.80775 -0.2639,4.47939 -0.2639,1.58341"
         style="fill:none;stroke:#000000;stroke-width:1px;stroke-linecap:butt;stroke-linejoin:miter;stroke-opacity:1" />
      <path
         inkscape:connector-curvature="0"
         id="path4976"
         d="m 204.35857,982.22607 c 0.35187,0.35187 0.70374,0.70374 0,0 z"
         style="fill:none;stroke:#000000;stroke-width:1px;stroke-linecap:butt;stroke-linejoin:miter;stroke-opacity:1" />
      <path
         transform="translate(9.8631078,710.50905)"
         inkscape:connector-curvature="0"
         id="path4978"
         d="m 199.5096,275.14774 c -1.22414,-1.74124 -4.48427,2.64108 -3.69463,3.43072 0.44473,0.44473 1.7749,0.2639 2.37512,0.2639 0.96794,0 2.02931,0.1729 2.90292,-0.2639"
         style="fill:none;stroke:#000000;stroke-width:1px;stroke-linecap:butt;stroke-linejoin:miter;stroke-opacity:1" />
      <path
         transform="translate(9.8631078,710.50905)"
         inkscape:connector-curvature="0"
         id="path4980"
         d="m 203.99592,275.41164 c -4.10759,0.43297 -2.9858,5.30057 -0.7917,2.37511 0.50072,-0.66762 -0.0179,-2.17271 0.7917,-2.37511 1.33948,-0.33487 0.0807,5.46122 1.84731,3.69462"
         style="fill:none;stroke:#000000;stroke-width:1px;stroke-linecap:butt;stroke-linejoin:miter;stroke-opacity:1" />
      <path
         transform="translate(9.8631078,710.50905)"
         inkscape:connector-curvature="0"
         id="path4982"
         d="m 207.95445,268.8141 c 0.0362,1.13154 0.19452,11.01448 0.2639,11.08386 0.1967,0.19671 0.2639,-0.51352 0.2639,-0.7917"
         style="fill:none;stroke:#000000;stroke-width:1px;stroke-linecap:butt;stroke-linejoin:miter;stroke-opacity:1" />
      <path
         transform="translate(9.8631078,710.50905)"
         inkscape:connector-curvature="0"
         id="path4984"
         d="m 211.64907,276.99505 c 0,1.0556 0,2.11121 0,3.16682"
         style="fill:none;stroke:#000000;stroke-width:1px;stroke-linecap:butt;stroke-linejoin:miter;stroke-opacity:1" />
      <path
         inkscape:connector-curvature="0"
         id="path4986"
         d="m 220.45657,984.07338 c 0.43983,-0.17594 0.87967,-0.35187 1.31951,-0.52781 0.088,0 0.17593,0 0.2639,0"
         style="fill:none;stroke:#000000;stroke-width:1px;stroke-linecap:butt;stroke-linejoin:miter;stroke-opacity:1" />
      <path
         transform="translate(9.8631078,710.50905)"
         inkscape:connector-curvature="0"
         id="path4988"
         d="m 213.49638,275.67554 c 0.67214,0.54873 3.0821,-0.61253 3.69462,0 1.16245,1.16245 -2.32776,4.96677 -2.90292,5.54193 -0.7563,0.75631 3.4954,1.25483 5.01413,-0.2639"
         style="fill:none;stroke:#000000;stroke-width:1px;stroke-linecap:butt;stroke-linejoin:miter;stroke-opacity:1" />
      <path
         transform="translate(9.8631078,710.50905)"
         inkscape:connector-curvature="0"
         id="path4990"
         d="m 214.28808,278.84236 c 1.43083,-1.20148 3.40524,-2.25591 5.27804,-1.31951"
         style="fill:none;stroke:#000000;stroke-width:1px;stroke-linecap:butt;stroke-linejoin:miter;stroke-opacity:1" />
      <path
         transform="translate(9.8631078,710.50905)"
         inkscape:connector-curvature="0"
         id="path4992"
         d="m 219.56612,279.10626 c 1.84469,1.38631 4.97964,-3.71186 3.43072,-4.48633 -2.90808,-1.45403 -3.97924,4.181 -3.16682,5.80584 0.51897,1.03795 4.3873,1.25365 5.27803,-0.52781"
         style="fill:none;stroke:#000000;stroke-width:1px;stroke-linecap:butt;stroke-linejoin:miter;stroke-opacity:1" />
    </g>
    <g
       id="g5159"
       transform="translate(2.1112127,1.0556063)">
      <path
         transform="translate(9.8631078,710.50905)"
         inkscape:connector-curvature="0"
         id="path4994"
         d="m 172.32773,288.07891 c -7.62397,-0.25031 -1.42395,7.43869 -2.90291,11.87557 -0.18856,0.56568 -1.43516,0.84953 -1.84732,1.05561"
         style="fill:none;stroke:#000000;stroke-width:1px;stroke-linecap:butt;stroke-linejoin:miter;stroke-opacity:1" />
      <path
         transform="translate(9.8631078,710.50905)"
         inkscape:connector-curvature="0"
         id="path4996"
         d="m 166.5219,293.62085 c 1.75934,0 3.51869,0 5.27803,0"
         style="fill:none;stroke:#000000;stroke-width:1px;stroke-linecap:butt;stroke-linejoin:miter;stroke-opacity:1" />
      <path
         transform="translate(9.8631078,710.50905)"
         inkscape:connector-curvature="0"
         id="path4998"
         d="m 173.38334,287.28721 c 0.14211,0.82604 -0.33404,7.91705 -0.5278,7.91705 -0.1967,0 0.12481,-0.38872 0.2639,-0.52781"
         style="fill:none;stroke:#000000;stroke-width:1px;stroke-linecap:butt;stroke-linejoin:miter;stroke-opacity:1" />
      <path
         transform="translate(9.8631078,710.50905)"
         inkscape:connector-curvature="0"
         id="path5000"
         d="m 178.92527,292.56524 c -3.19931,6.39864 -5.79393,-0.0116 -1.31951,-1.05561 2.74951,-1.29608 0.90466,5.69289 2.63902,3.95853"
         style="fill:none;stroke:#000000;stroke-width:1px;stroke-linecap:butt;stroke-linejoin:miter;stroke-opacity:1" />
      <path
         transform="translate(9.8631078,710.50905)"
         inkscape:connector-curvature="0"
         id="path5002"
         d="m 183.6755,291.24573 c 0,1.67138 0,3.34276 0,5.01413"
         style="fill:none;stroke:#000000;stroke-width:1px;stroke-linecap:butt;stroke-linejoin:miter;stroke-opacity:1" />
      <path
         transform="translate(9.8631078,710.50905)"
         inkscape:connector-curvature="0"
         id="path5004"
         d="m 181.30039,291.77354 c 1.3195,0 2.63901,0 3.95852,0"
         style="fill:none;stroke:#000000;stroke-width:1px;stroke-linecap:butt;stroke-linejoin:miter;stroke-opacity:1" />
      <path
         transform="translate(9.8631078,710.50905)"
         inkscape:connector-curvature="0"
         id="path5006"
         d="m 188.42573,290.45403 c -0.18834,0.40654 -0.5278,6.91275 -0.5278,4.48632"
         style="fill:none;stroke:#000000;stroke-width:1px;stroke-linecap:butt;stroke-linejoin:miter;stroke-opacity:1" />
      <path
         transform="translate(9.8631078,710.50905)"
         inkscape:connector-curvature="0"
         id="path5008"
         d="m 186.57842,289.92622 c 1.71785,0.30244 3.48618,0.26391 5.27803,0.26391"
         style="fill:none;stroke:#000000;stroke-width:1px;stroke-linecap:butt;stroke-linejoin:miter;stroke-opacity:1" />
      <path
         transform="translate(9.8631078,710.50905)"
         inkscape:connector-curvature="0"
         id="path5010"
         d="m 190.00914,294.14865 c 0.78892,-0.0588 1.67715,0.2014 2.37511,-0.2639 4.34059,-2.89373 -0.99259,-3.22983 -1.58341,-2.63902 -0.67105,0.67106 -0.70778,2.06369 -0.7917,2.90292 -0.10727,1.07274 -0.21088,0.84472 0.2639,1.31951 3.95694,3.95694 6.3211,-2.90292 6.59754,-2.90292 1.04459,0 -1.47786,5.17249 0,3.69462 0.77834,-0.77833 1.65943,-1.88532 2.63902,-2.37511 2.08916,-1.04458 1.3195,5.42997 1.3195,3.16682"
         style="fill:none;stroke:#000000;stroke-width:1px;stroke-linecap:butt;stroke-linejoin:miter;stroke-opacity:1" />
    </g>
    <g
       id="g5170"
       transform="translate(5,0)">
      <path
         transform="translate(9.8631078,710.50905)"
         inkscape:connector-curvature="0"
         id="path5016"
         d="m 312.98728,271.18921 c 0,0.75814 0,9.61634 0,6.33364"
         style="fill:none;stroke:#000000;stroke-width:1px;stroke-linecap:butt;stroke-linejoin:miter;stroke-opacity:1" />
      <path
         transform="translate(9.8631078,710.50905)"
         inkscape:connector-curvature="0"
         id="path5018"
         d="m 312.19557,269.8697 c 3.75588,-2.41643 7.63315,2.53206 5.01413,5.80584 -2.0308,2.5385 -4.42053,1.51762 -5.27803,2.37511"
         style="fill:none;stroke:#000000;stroke-width:1px;stroke-linecap:butt;stroke-linejoin:miter;stroke-opacity:1" />
      <path
         transform="translate(9.8631078,710.50905)"
         inkscape:connector-curvature="0"
         id="path5020"
         d="m 319.32091,277.78675 c 1.03553,-0.34669 2.21038,-0.57738 3.16682,-1.0556 2.81626,-1.40813 -1.76124,-2.76954 -3.69462,-1.31951 -0.74818,0.56114 -1.31951,1.44339 -1.31951,2.37511 0,2.39753 4.06659,1.89926 5.80584,1.31951"
         style="fill:none;stroke:#000000;stroke-width:1px;stroke-linecap:butt;stroke-linejoin:miter;stroke-opacity:1" />
      <path
         transform="translate(9.8631078,710.50905)"
         inkscape:connector-curvature="0"
         id="path5022"
         d="m 327.23796,275.14774 c -1.46013,-0.47609 -4.48536,2.37704 -3.69462,3.95852 0.6806,1.3612 3.08728,-0.63263 3.43072,-1.31951 0.15772,-0.31543 0.5278,-0.9934 0.5278,-1.31951 0,-0.44854 -0.66509,-1.5201 -0.2639,-1.3195 0.96527,0.48263 0.32637,4.95166 1.84731,3.43072"
         style="fill:none;stroke:#000000;stroke-width:1px;stroke-linecap:butt;stroke-linejoin:miter;stroke-opacity:1" />
      <path
         sodipodi:nodetypes="cssc"
         transform="translate(9.8631078,710.50905)"
         inkscape:connector-curvature="0"
         id="path5024"
         d="m 334.62721,275.14773 c -4.8414,-2.20935 -7.6576,4.48633 -3.69463,4.48633 0.43984,0 0.92611,0.1967 1.31951,0 2.64193,-1.32096 2.63902,-6.88804 2.63902,-9.23655"
         style="fill:none;stroke:#000000;stroke-width:1px;stroke-linecap:butt;stroke-linejoin:miter;stroke-opacity:1" />
      <path
         transform="translate(9.8631078,710.50905)"
         inkscape:connector-curvature="0"
         id="path5026"
         d="m 334.89111,268.2863 c 0,2.95658 0,8.045 0,10.02826"
         style="fill:none;stroke:#000000;stroke-width:1px;stroke-linecap:butt;stroke-linejoin:miter;stroke-opacity:1" />
      <path
         transform="translate(9.8631078,710.50905)"
         inkscape:connector-curvature="0"
         id="path5028"
         d="m 340.96084,274.35603 c -1.57562,-0.5595 -1.89407,0.0468 -2.90291,1.05561 -3.72661,3.7266 3.17319,2.89973 5.27803,1.84731"
         style="fill:none;stroke:#000000;stroke-width:1px;stroke-linecap:butt;stroke-linejoin:miter;stroke-opacity:1" />
      <path
         transform="translate(9.8631078,710.50905)"
         inkscape:connector-curvature="0"
         id="path5030"
         d="m 344.65547,275.67554 c -3.57098,1.8951 0.40151,4.16738 2.90291,3.16682 1.06249,-0.425 2.23226,-4.00614 0.79171,-4.48633 -1.51326,-0.50442 -2.49337,0.83901 -3.69462,1.31951 z"
         style="fill:none;stroke:#000000;stroke-width:1px;stroke-linecap:butt;stroke-linejoin:miter;stroke-opacity:1" />
      <path
         sodipodi:nodetypes="cssc"
         transform="translate(9.8631078,710.50905)"
         inkscape:connector-curvature="0"
         id="path5032"
         d="m 354.15592,275.14774 c -3.53776,-0.62516 -5.9214,2.78735 -4.75023,3.95852 1.84931,1.8493 4.27089,-0.19383 4.75023,-2.11121 0.46882,-1.87525 0.52781,-3.87938 0.52781,-5.80584"
         style="fill:none;stroke:#000000;stroke-width:1px;stroke-linecap:butt;stroke-linejoin:miter;stroke-opacity:1" />
      <path
         transform="translate(9.8631078,710.50905)"
         inkscape:connector-curvature="0"
         id="path5034"
         d="m 354.41982,268.02239 c 0,1.14358 0,2.28715 0,3.43072 0,1.75935 0,3.51869 0,5.27804 0,0.87967 0,1.75934 0,2.63901 0,0.17594 0.17594,0.5278 0,0.5278 -0.17593,0 0,-0.35186 0,-0.5278"
         style="fill:none;stroke:#000000;stroke-width:1px;stroke-linecap:butt;stroke-linejoin:miter;stroke-opacity:1" />
      <path
         transform="translate(9.8631078,710.50905)"
         inkscape:connector-curvature="0"
         id="path5036"
         d="m 357.32274,278.84236 c 1.80668,-0.0688 2.55622,-1.50061 3.43072,-2.37512 1.69197,-1.69196 -7.15476,-2.49279 -5.80583,2.90292 0.42621,1.70487 7.25206,2.7762 8.18095,1.84731"
         style="fill:none;stroke:#000000;stroke-width:1px;stroke-linecap:butt;stroke-linejoin:miter;stroke-opacity:1" />
    </g>
    <g
       id="g5184"
       transform="translate(-1,-1)">
      <path
         transform="translate(9.8631078,710.50905)"
         inkscape:connector-curvature="0"
         id="path5056"
         d="m 484.78721,260.10535 c -2.52443,0.55911 -4.40601,8.88086 -2.63902,9.76435 3.51952,1.75976 7.37612,-2.62589 9.50046,-4.75022"
         style="fill:none;stroke:#000000;stroke-width:1px;stroke-linecap:butt;stroke-linejoin:miter;stroke-opacity:1" />
      <path
         transform="translate(9.8631078,710.50905)"
         inkscape:connector-curvature="0"
         id="path5058"
         d="m 491.91255,260.89705 c -0.77856,0.46754 -2.59732,3.47242 -1.58341,4.48633 0.75887,0.75887 2.94016,0.75446 3.69462,0 2.06229,-2.06229 2.67809,-6.40205 -2.11121,-4.48633 z"
         style="fill:none;stroke:#000000;stroke-width:1px;stroke-linecap:butt;stroke-linejoin:miter;stroke-opacity:1" />
      <path
         sodipodi:nodetypes="cssssc"
         transform="translate(9.8631078,710.50905)"
         inkscape:connector-curvature="0"
         id="path5060"
         d="m 496.66278,254.68288 c -3.34073,4.05195 -1.92571,6.53919 -1.31951,6.74197 3.58932,1.20067 3.44948,-4.63768 3.16682,-6.33363 -0.15099,-0.90595 -0.86444,-1.35277 -1.31951,-2.11122 -0.48111,-0.80184 -1.84731,-3.04631 -1.84731,-2.11121 0,1.15112 5.52001,6.86144 6.86144,6.86144"
         style="fill:none;stroke:#000000;stroke-width:1px;stroke-linecap:butt;stroke-linejoin:miter;stroke-opacity:1" />
      <path
         sodipodi:nodetypes="cssc"
         transform="translate(9.8631078,710.50905)"
         inkscape:connector-curvature="0"
         id="path5062"
         d="m 502.6603,255.49955 c 4.20303,-5.00061 -0.73592,-6.13204 -1.5112,-2.25565 -0.75981,3.79908 3.48928,4.69168 5.54194,2.63902 0.55433,-0.55433 1.01027,-1.27417 1.58341,-1.84731"
         style="fill:none;stroke:#000000;stroke-width:1px;stroke-linecap:butt;stroke-linejoin:miter;stroke-opacity:1" />
      <path
         sodipodi:nodetypes="ccssccssssscc"
         transform="translate(9.8631078,710.50905)"
         inkscape:connector-curvature="0"
         id="path5066"
         d="m 513.81638,248.22977 c 0.19674,-0.83949 2.50015,-4.09738 1.58341,-5.01413 -0.18661,-0.1866 -0.5278,0 -0.7917,0 -2.32064,0 -2.11122,3.10798 -2.11122,4.75023 0,0.17594 -0.17252,0.4933 0,0.52781 0.43984,0.088 0.87281,-0.30451 1.31951,-0.26391 0.55407,0.0504 1.04367,0.39287 1.58341,0.52781 1.96817,0.49204 2.37511,-2.80962 2.37511,-3.95853 0,-1.44961 0.0501,-2.69582 -0.7917,-3.95852 -0.0534,-0.0801 -0.5278,-0.96785 -0.5278,-0.7917 0,0.93331 1.72966,3.09429 2.11121,3.95852 0.2898,0.65641 -1.50159,-5.12507 1.84731,-6.06974 0.69545,-0.69545 1.89133,1.89133 2.11121,2.11122"
         style="fill:none;stroke:#000000;stroke-width:1px;stroke-linecap:butt;stroke-linejoin:miter;stroke-opacity:1" />
      <path
         sodipodi:nodetypes="csscscssc"
         inkscape:connector-curvature="0"
         d="m 519.52533,957.66615 c -0.35187,0 -1.0556,0.35187 -1.0556,0 0,-0.35187 1.40747,0 1.0556,0 -1.59495,0 -2.568,-0.14202 -2.94987,1.80604 -0.38188,1.94806 -0.62089,3.73589 2.15817,3.73589 0.13522,0 1.20967,0.0732 1.3195,0 1.00417,-0.66945 0.53492,-6.87566 -0.2639,-5.27803 -0.95456,1.90912 6.75199,10.13771 5.01413,11.87557 -1.28879,1.28879 -5.01413,0.88983 -5.01413,-1.31951"
         style="fill:none;stroke:#000000;stroke-width:1px;stroke-linecap:butt;stroke-linejoin:miter;stroke-opacity:1"
         id="path5070" />
    </g>
    <g
       id="g5192"
       transform="matrix(0.9979085,-0.06464223,0.06464223,0.9979085,-61.732113,33.370295)">
      <path
         transform="translate(9.8631078,710.50905)"
         inkscape:connector-curvature="0"
         id="path5072"
         d="m 493.23206,291.77354 c -1.88468,-2.62767 -11.43049,1.50069 -8.97266,3.95852 1.57269,1.57269 4.39219,0.96147 5.80584,2.37511"
         style="fill:none;stroke:#000000;stroke-width:1px;stroke-linecap:butt;stroke-linejoin:miter;stroke-opacity:1" />
      <path
         inkscape:connector-curvature="0"
         id="path5074"
         d="m 503.93808,1007.084 c -1.66328,-0.1937 -2.55597,0.1809 -3.69463,1.3195 -2.6569,2.6569 8.14299,5.3531 3.69463,-1.3195 z"
         style="fill:none;stroke:#000000;stroke-width:1px;stroke-linecap:butt;stroke-linejoin:miter;stroke-opacity:1" />
      <path
         sodipodi:nodetypes="cccssscscsscsscssscsc"
         inkscape:connector-curvature="0"
         id="path5076"
         d="m 510.22051,1010.7445 c -0.97006,-0.1018 -2.70081,-0.6614 -3.69462,-0.2639 -3.54066,1.4163 -3.07912,4.876 1.0556,3.6946 2.57794,-0.7365 8.76819,-7.3892 8.97266,-7.3892 0.87967,0 -1.07211,1.3954 -1.58341,2.1112 -0.69581,0.9741 -6.06974,7.8889 -6.06974,8.4448 0,1.854 10.50539,0.2133 8.44485,-1.8473 -1.64607,-1.646 -6.33364,0.3665 -6.33364,2.9029 0,0.264 -0.1866,0.6051 0,0.7918 1.7133,1.7133 5.47853,0.2087 7.77657,0.2087 1.30895,0 4.1085,0.1957 3.06441,0.1957 -0.45026,0 -3.06084,-0.072 -3.45173,0.1234 -0.63323,0.3166 -2.78403,2.2301 -1.84731,3.1668 0.24881,0.2488 0.70374,0 1.0556,0 1.64896,0 2.6113,0.022 3.95853,-1.0556 0.25676,-0.2054 1.8346,-2.1112 1.84731,-2.1112 0.088,0 -1.47754,1.8599 -2.37512,3.4307 -1.95148,3.4151 -3.2615,7.7478 -6.06973,10.556 -0.63719,0.6372 -2.24524,1.1604 -3.16682,0.7917 -0.66024,-0.2641 -1.21894,-1.5645 -1.58341,-2.1112 -2.25021,-3.3753 -0.56734,-4.2224 2.90292,-4.2224"
         style="fill:none;stroke:#000000;stroke-width:1px;stroke-linecap:butt;stroke-linejoin:miter;stroke-opacity:1" />
      <path
         transform="translate(9.8631078,710.50905)"
         inkscape:connector-curvature="0"
         id="path5078"
         d="m 513.02468,313.41347 c 1.27713,1.09287 3.79385,1.22027 5.01413,0 1.25287,-1.25287 -3.69474,-1.8472 -4.22243,-1.31951 -0.3627,0.3627 -0.40226,0.98569 -0.7917,1.31951 -0.89063,0.76339 -2.23451,0.68571 -1.58341,2.63901 0.9774,2.93222 10.67571,-0.40816 10.81996,-0.2639 0.38322,0.38322 -2.84014,2.70691 -3.16682,2.90292 -0.0639,0.0383 -1.31951,0.8468 -1.31951,0.7917 0,-0.0218 1.93914,0.0344 2.11122,0 0.55178,-0.11035 4.24222,-1.56361 4.75023,-1.0556 1.07327,1.07327 -1.70957,3.36184 -2.37512,3.69462"
         style="fill:none;stroke:#000000;stroke-width:1px;stroke-linecap:butt;stroke-linejoin:miter;stroke-opacity:1" />
    </g>
  </g>
</svg>
